<?xml version="1.0" encoding="UTF-8"?>
<svg width="16px" height="10px" viewBox="0 0 16 10" version="1.1" xmlns="http://www.w3.org/2000/svg" xmlns:xlink="http://www.w3.org/1999/xlink">
    <!-- Generator: Sketch 54.1 (76490) - https://sketchapp.com -->
    <title>2. Icons / 1. UI / 16 Size / ic_arrow left 2</title>
    <desc>Created with Sketch.</desc>
    <defs>
        <path d="M0.40938701,7.61674925 L5.17190268,3.31272773 C5.36678357,3.13660831 5.66471656,3.14131285 5.8539396,3.32349751 L6.60248488,4.04419974 C6.80141164,4.23572717 6.80740998,4.55225283 6.61588255,4.75117958 C6.60473912,4.76275351 6.59304432,4.77378361 6.58083884,4.78423148 L3.98772387,7.00393408 L15.5,7.0088365 C15.7760626,7.00894917 15.9997959,7.23277377 15.9997959,7.50883646 L16.0001559,8.50952462 C16.0001559,8.785667 15.7762982,9.00952462 15.5001559,9.00952462 C15.5001039,9.00952462 15.5000519,9.00952461 15.5,9.0095246 L3.98772387,9.00577933 L6.58701264,11.2343967 C6.79664943,11.4141382 6.82088431,11.7297917 6.64114276,11.9394285 C6.62951559,11.9529896 6.61717004,11.9659178 6.60415923,11.9781575 L5.85463211,12.6832654 C5.66456446,12.862069 5.36895226,12.8646347 5.17580979,12.6891569 L0.408407976,8.35777919 C0.204023185,8.17208732 0.188869574,7.85586772 0.374561438,7.65148292 C0.385593119,7.63934072 0.397215702,7.62774881 0.40938701,7.61674925 Z" id="path-1"></path>
    </defs>
    <g id="Page-1" stroke="none" stroke-width="1" fill="none" fill-rule="evenodd">
        <g id="8.0-Tin-tức-listing" transform="translate(-512.000000, -3115.000000)">
            <g id="Pagination" transform="translate(165.000000, 3070.000000)">
                <g id="Group-2" transform="translate(347.000000, 41.000000)">
                    <g id="Prev">
                        <g id="2.-Icon-/-1.-UI-/-1.-Normal-/-ic_arrow-left-2" transform="translate(0.000000, 1.000000)">
                            <mask id="mask-2" fill="white">
                                <use xlink:href="#path-1"></use>
                            </mask>
                            <g id="ic_arrow-left-2"></g>
                            <g id="3.-Color-/-2.-Gray-/-2.-Gray-20" mask="url(#mask-2)" fill="#333333" fill-rule="evenodd">
                                <rect id="Gray-20" x="0" y="0" width="16" height="16"></rect>
                            </g>
                        </g>
                    </g>
                </g>
            </g>
        </g>
    </g>
</svg>