<?xml version="1.0" encoding="UTF-8"?>
<svg width="16px" height="10px" viewBox="0 0 16 10" version="1.1" xmlns="http://www.w3.org/2000/svg" xmlns:xlink="http://www.w3.org/1999/xlink">
    <!-- Generator: Sketch 54.1 (76490) - https://sketchapp.com -->
    <title>2. Icons / 1. UI / 16 Size / ic_arrow right 2</title>
    <desc>Created with Sketch.</desc>
    <defs>
        <path d="M15.590613,7.61674925 L10.8280973,3.31272773 C10.6332164,3.13660831 10.3352834,3.14131285 10.1460604,3.32349751 L9.39751512,4.04419974 C9.19858836,4.23572717 9.19259002,4.55225283 9.38411745,4.75117958 C9.39526088,4.76275351 9.40695568,4.77378361 9.41916116,4.78423148 L12.0122761,7.00393408 L0.500000042,7.0088365 C0.223937376,7.00894917 0.000204098667,7.23277377 0.000204098667,7.50883646 L-0.000155870196,8.50952462 C-0.000155870196,8.785667 0.223701755,9.00952462 0.49984413,9.00952462 C0.499896095,9.00952462 0.499948059,9.00952461 0.500000024,9.0095246 L12.0122761,9.00577933 L9.41298736,11.2343967 C9.20335057,11.4141382 9.17911569,11.7297917 9.35885724,11.9394285 C9.37048441,11.9529896 9.38282996,11.9659178 9.39584077,11.9781575 L10.1453679,12.6832654 C10.3354355,12.862069 10.6310477,12.8646347 10.8241902,12.6891569 L15.591592,8.35777919 C15.7959768,8.17208732 15.8111304,7.85586772 15.6254386,7.65148292 C15.6144069,7.63934072 15.6027843,7.62774881 15.590613,7.61674925 Z" id="path-1"></path>
    </defs>
    <g id="Page-1" stroke="none" stroke-width="1" fill="none" fill-rule="evenodd">
        <g id="8.0-Tin-tức-listing" transform="translate(-913.000000, -3115.000000)">
            <g id="Pagination" transform="translate(165.000000, 3070.000000)">
                <g id="Group-2" transform="translate(347.000000, 41.000000)">
                    <g id="Next" transform="translate(355.000000, 0.000000)">
                        <g id="2.-Icon-/-1.-UI-/-1.-Normal-/-ic_arrow-right-2" transform="translate(46.000000, 1.000000)">
                            <mask id="mask-2" fill="white">
                                <use xlink:href="#path-1"></use>
                            </mask>
                            <g id="ic_arrow-right-2"></g>
                            <g id="3.-Color-/-2.-Gray-/-2.-Gray-20" mask="url(#mask-2)" fill="#333333" fill-rule="evenodd">
                                <rect id="Gray-20" x="0" y="0" width="16" height="16"></rect>
                            </g>
                        </g>
                    </g>
                </g>
            </g>
        </g>
    </g>
</svg>