<svg xmlns="http://www.w3.org/2000/svg" width="22" height="28" viewBox="0 0 22 28">
    <g fill="#006790" fill-rule="nonzero">
        <path d="M11 3.52c-5.095 0-9.24 4.02-9.24 8.962V22h1.912v-9.518c0-3.92 3.287-7.108 7.328-7.108s7.328 3.189 7.328 7.108V22h1.912v-9.518c0-4.942-4.145-8.962-9.24-8.962z"/>
        <path d="M21.057 21.12H.943c-.52 0-.943.394-.943.88s.422.88.943.88h20.114c.52 0 .943-.394.943-.88s-.422-.88-.943-.88zM11 0C9.302 0 7.92 1.184 7.92 2.64c0 1.456 1.382 2.64 3.08 2.64 1.698 0 3.08-1.184 3.08-2.64C14.08 1.184 12.698 0 11 0zm0 3.558c-.58 0-1.071-.42-1.071-.918 0-.498.49-.918 1.071-.918.58 0 1.071.42 1.071.918 0 .498-.49.918-1.071.918z"/>
        <path d="M12.16 22v1.695c0 .898-.718 1.63-1.6 1.63-.882 0-1.6-.732-1.6-1.63V22H7.04v1.695c0 1.977 1.58 3.585 3.52 3.585s3.52-1.608 3.52-3.585V22h-1.92z"/>
    </g>
</svg>
