<?xml version="1.0" encoding="UTF-8"?>
<svg width="20px" height="19px" viewBox="0 0 20 19" version="1.1" xmlns="http://www.w3.org/2000/svg" xmlns:xlink="http://www.w3.org/1999/xlink">
    <!-- Generator: Sketch 53.2 (72643) - https://sketchapp.com -->
    <title>building</title>
    <desc>Created with Sketch.</desc>
    <g id="Page-1" stroke="none" stroke-width="1" fill="none" fill-rule="evenodd">
        <g id="6.1.1-TT-tại-quầy" transform="translate(-165.000000, -318.000000)" fill="#006790" fill-rule="nonzero">
            <g id="building" transform="translate(165.000000, 318.000000)">
                <rect id="Rectangle" x="7" y="11" width="1" height="1"></rect>
                <rect id="Rectangle-Copy-14" x="7" y="6" width="1" height="1"></rect>
                <rect id="Rectangle" x="12" y="11" width="1" height="1"></rect>
                <rect id="Rectangle-Copy-19" x="12" y="6" width="1" height="1"></rect>
                <rect id="Rectangle" x="7" y="13" width="1" height="1"></rect>
                <rect id="Rectangle-Copy-20" x="7" y="8" width="1" height="1"></rect>
                <rect id="Rectangle" x="12" y="13" width="1" height="1"></rect>
                <rect id="Rectangle-Copy-21" x="12" y="8" width="1" height="1"></rect>
                <path d="M19.4761571,16.6422266 L19.0129257,16.6422266 L19.0129257,9.03022958 C19.0129257,8.74865621 18.7783405,8.52044074 18.4889082,8.52044074 L15.3386899,8.52044074 L15.3386899,2.25394639 C15.3386899,1.97237302 15.1041047,1.74415755 14.8146724,1.74415755 L13.1491702,1.74415755 L13.1491702,0.50978884 C13.1491702,0.228215471 12.9145851,0 12.6251528,0 L7.14480346,0 C6.85537115,0 6.62078599,0.228215471 6.62078599,0.50978884 L6.62078599,1.74415755 L5.18550216,1.74415755 C4.89606985,1.74415755 4.66148469,1.97237302 4.66148469,2.25394639 L4.66148469,8.52044074 L1.5110917,8.52044074 C1.22165938,8.52044074 0.987074231,8.74865621 0.987074231,9.03022958 L0.987074231,16.6422266 L0.524017465,16.6422266 C0.234585152,16.6422266 0,16.8704421 0,17.1520155 L0,18.4902112 C0,18.7717845 0.234585152,19 0.524017465,19 L19.4759824,19 C19.7654148,19 19.9999999,18.7717845 19.9999999,18.4902112 L19.9999999,17.1520155 C20.0001746,16.8704421 19.7655894,16.6422266 19.4761571,16.6422266 Z M17.9647161,9.54001842 L17.9647161,16.6422266 L15.3385152,16.6422266 L15.3385152,9.54001842 L17.9647161,9.54001842 Z M7.66882092,1.01974761 L12.1009606,1.01974761 L12.1009606,1.74432748 L7.66882092,1.74432748 L7.66882092,1.01974761 Z M5.7096943,2.76373523 L7.14497813,2.76373523 L12.6251528,2.76373523 L14.290655,2.76373523 L14.290655,16.6422266 L5.7096943,16.6422266 L5.7096943,2.76373523 Z M2.03510916,9.54001842 L4.66148469,9.54001842 L4.66148469,16.6422266 L2.03510916,16.6422266 L2.03510916,9.54001842 Z M18.9521396,17.9804223 L1.0482096,17.9804223 L1.0482096,17.6618043 L1.51126637,17.6618043 L5.18567683,17.6618043 L10.0001746,17.6618043 L14.8146724,17.6618043 L18.4889082,17.6618043 L18.9521396,17.6618043 L18.9521396,17.9804223 Z" id="Shape"></path>
            </g>
        </g>
    </g>
</svg>