<?xml version="1.0" encoding="UTF-8"?>
<svg width="20px" height="14px" viewBox="0 0 20 14" version="1.1" xmlns="http://www.w3.org/2000/svg" xmlns:xlink="http://www.w3.org/1999/xlink">
    <!-- Generator: Sketch 53.2 (72643) - https://sketchapp.com -->
    <title>credit-card (2)</title>
    <desc>Created with Sketch.</desc>
    <g id="Page-1" stroke="none" stroke-width="1" fill="none" fill-rule="evenodd">
        <g id="6.4-Thanh-toán-tại-nhà" transform="translate(-165.000000, -321.000000)" fill="#686868" fill-rule="nonzero">
            <g id="credit-card-(2)" transform="translate(165.000000, 321.000000)">
                <path d="M17.9167147,0 L2.08332438,0 C0.935001826,0 0,0.934998174 0,2.08335531 L0,11.2500171 C0,12.3983352 0.935001826,13.3333333 2.08332438,13.3333333 L17.9166756,13.3333333 C19.0649982,13.3333333 20,12.3983352 20,11.2500171 L20,2.08335531 C20.0000391,0.934998174 19.0650372,0 17.9167147,0 Z M19.1667171,11.249978 C19.1667171,11.9391564 18.6058957,12.4999756 17.9167147,12.4999756 L2.08332438,12.4999756 C1.39414335,12.4999756 0.83332194,11.9391564 0.83332194,11.249978 L0.83332194,2.08335531 C0.83332194,1.39417696 1.39414335,0.833357747 2.08332438,0.833357747 L17.9166756,0.833357747 C18.6058567,0.833357747 19.1666781,1.39417696 19.1666781,2.08335531 L19.1666781,11.249978 L19.1667171,11.249978 Z" id="Shape"></path>
                <path d="M19.5832821,2.59259259 L0.416678874,2.59259259 C0.186679323,2.59259259 0,2.77927082 0,3.00926902 L0,5.50924949 C0,5.7392477 0.186679323,5.92592593 0.416678874,5.92592593 L19.5833211,5.92592593 C19.8133207,5.92592593 20,5.7392477 20,5.50924949 L20,3.00926902 C19.9999609,2.77927082 19.8132816,2.59259259 19.5832821,2.59259259 Z M19.1666423,5.09257306 L0.833318685,5.09257306 L0.833318685,3.42590639 L19.1666423,3.42590639 L19.1666423,5.09257306 L19.1666423,5.09257306 Z" id="Shape"></path>
                <path d="M8.09522676,8.51851852 L3.01588435,8.51851852 C2.7822346,8.51851852 2.59259259,8.68445861 2.59259259,8.88890625 C2.59259259,9.09335389 2.7822346,9.25925926 3.01588435,9.25925926 L8.09522676,9.25925926 C8.32887651,9.25925926 8.51851852,9.09331917 8.51851852,8.88887153 C8.51851852,8.68442389 8.32887651,8.51851852 8.09522676,8.51851852 Z" id="Path"></path>
                <path d="M8.09522676,10 L3.01588435,10 C2.7822346,10 2.59259259,10.1659323 2.59259259,10.3703704 C2.59259259,10.5748084 2.7822346,10.7407407 3.01588435,10.7407407 L8.09522676,10.7407407 C8.32887651,10.7407407 8.51851852,10.5748084 8.51851852,10.3703704 C8.51847884,10.1659323 8.32887651,10 8.09522676,10 Z" id="Path"></path>
                <path d="M16.1574025,7.40740741 L15.324079,7.40740741 C14.6348966,7.40740741 14.0740741,7.96822991 14.0740741,8.65741229 L14.0740741,9.49073586 C14.0740741,10.1799182 14.6348966,10.7407407 15.324079,10.7407407 L16.1574025,10.7407407 C16.8465849,10.7407407 17.4074074,10.1799182 17.4074074,9.49073586 L17.4074074,8.65741229 C17.4074074,7.96826897 16.8465849,7.40740741 16.1574025,7.40740741 Z M16.5740838,9.49077492 C16.5740838,9.72077582 16.3874034,9.90745624 16.1574025,9.90745624 L15.324079,9.90745624 C15.0940781,9.90745624 14.9073976,9.72077582 14.9073976,9.49077492 L14.9073976,8.65745135 C14.9073976,8.42745045 15.0940781,8.24077004 15.324079,8.24077004 L16.1574025,8.24077004 C16.3874034,8.24077004 16.5740838,8.42745045 16.5740838,8.65745135 L16.5740838,9.49077492 Z" id="Shape"></path>
            </g>
        </g>
    </g>
</svg>