<?xml version="1.0" encoding="UTF-8"?>
<svg width="20px" height="14px" viewBox="0 0 20 14" version="1.1" xmlns="http://www.w3.org/2000/svg" xmlns:xlink="http://www.w3.org/1999/xlink">
    <!-- Generator: Sketch 53.2 (72643) - https://sketchapp.com -->
    <title>credit-card (2) copy 2</title>
    <desc>Created with Sketch.</desc>
    <g id="Page-1" stroke="none" stroke-width="1" fill="none" fill-rule="evenodd">
        <g id="6.1.1-TT-tại-quầy" transform="translate(-165.000000, -273.000000)" fill="#686868" fill-rule="nonzero">
            <g id="credit-card-(2)-copy-2" transform="translate(165.000000, 273.000000)">
                <path d="M17.9167147,0 L2.08332438,0 C0.935001826,0 0,0.967519849 0,2.15581984 L0,11.641322 C0,12.8295816 0.935001826,13.7971014 2.08332438,13.7971014 L17.9166756,13.7971014 C19.0649982,13.7971014 20,12.8295816 20,11.641322 L20,2.15581984 C20.0000391,0.967519849 19.0650372,0 17.9167147,0 Z M19.1667171,11.6412816 C19.1667171,12.3544314 18.6058957,12.9347573 17.9167147,12.9347573 L2.08332438,12.9347573 C1.39414335,12.9347573 0.83332194,12.3544314 0.83332194,11.6412816 L0.83332194,2.15581984 C0.83332194,1.44267008 1.39414335,0.862344104 2.08332438,0.862344104 L17.9166756,0.862344104 C18.6058567,0.862344104 19.1666781,1.44267008 19.1666781,2.15581984 L19.1666781,11.6412816 L19.1667171,11.6412816 Z" id="Shape"></path>
                <path d="M19.5832821,2.68276973 L0.416678874,2.68276973 C0.186679323,2.68276973 0,2.87594111 0,3.11393925 L0,5.70087556 C0,5.9388737 0.186679323,6.13204509 0.416678874,6.13204509 L19.5833211,6.13204509 C19.8133207,6.13204509 20,5.9388737 20,5.70087556 L20,3.11393925 C19.9999609,2.87594111 19.8132816,2.68276973 19.5832821,2.68276973 Z M19.1666423,5.26970604 L0.833318685,5.26970604 L0.833318685,3.54506836 L19.1666423,3.54506836 L19.1666423,5.26970604 L19.1666423,5.26970604 Z" id="Shape"></path>
                <path d="M8.09522676,8.81481481 L3.01588435,8.81481481 C2.7822346,8.81481481 2.59259259,8.98652674 2.59259259,9.1980856 C2.59259259,9.40964446 2.7822346,9.58132045 3.01588435,9.58132045 L8.09522676,9.58132045 C8.32887651,9.58132045 8.51851852,9.40960853 8.51851852,9.19804967 C8.51851852,8.98649081 8.32887651,8.81481481 8.09522676,8.81481481 Z" id="Path"></path>
                <path d="M8.09522676,10.3478261 L3.01588435,10.3478261 C2.7822346,10.3478261 2.59259259,10.51953 2.59259259,10.7310789 C2.59259259,10.9426278 2.7822346,11.1143317 3.01588435,11.1143317 L8.09522676,11.1143317 C8.32887651,11.1143317 8.51851852,10.9426278 8.51851852,10.7310789 C8.51847884,10.51953 8.32887651,10.3478261 8.09522676,10.3478261 Z" id="Path"></path>
                <path d="M16.1574025,7.66505636 L15.324079,7.66505636 C14.6348966,7.66505636 14.0740741,8.24538573 14.0740741,8.95853967 L14.0740741,9.82084841 C14.0740741,10.5340024 14.6348966,11.1143317 15.324079,11.1143317 L16.1574025,11.1143317 C16.8465849,11.1143317 17.4074074,10.5340024 17.4074074,9.82084841 L17.4074074,8.95853967 C17.4074074,8.24542615 16.8465849,7.66505636 16.1574025,7.66505636 Z M16.5740838,9.82088883 C16.5740838,10.0588898 16.3874034,10.2520634 16.1574025,10.2520634 L15.324079,10.2520634 C15.0940781,10.2520634 14.9073976,10.0588898 14.9073976,9.82088883 L14.9073976,8.9585801 C14.9073976,8.72057917 15.0940781,8.52740552 15.324079,8.52740552 L16.1574025,8.52740552 C16.3874034,8.52740552 16.5740838,8.72057917 16.5740838,8.9585801 L16.5740838,9.82088883 Z" id="Shape"></path>
            </g>
        </g>
    </g>
</svg>