<?xml version="1.0" encoding="UTF-8"?>
<svg width="19px" height="19px" viewBox="0 0 19 19" version="1.1" xmlns="http://www.w3.org/2000/svg" xmlns:xlink="http://www.w3.org/1999/xlink">
    <!-- Generator: Sketch 53.2 (72643) - https://sketchapp.com -->
    <title>edit (3)</title>
    <desc>Created with Sketch.</desc>
    <g id="Page-1" stroke="none" stroke-width="1" fill="none" fill-rule="evenodd" stroke-linecap="round" stroke-linejoin="round">
        <g id="5.0.1-Thông-tin-hành-khách-Khứ-hồi-filled" transform="translate(-1208.000000, -111.000000)" stroke="#006790" stroke-width="1.5">
            <g id="Btn-edit" transform="translate(1020.000000, 100.000000)">
                <g id="Group-7" transform="translate(50.000000, 11.000000)">
                    <g id="edit-(3)" transform="translate(139.000000, 1.000000)">
                        <path d="M7.5,2 L1.66666667,2 C0.746192084,2 0,2.74619208 0,3.66666667 L0,15.3333333 C0,16.2538079 0.746192084,17 1.66666667,17 L13.3333333,17 C14.2538079,17 15,16.2538079 15,15.3333333 L15,9.5" id="Path"></path>
                        <path d="M13.9226784,0.527984889 C14.6266583,-0.175994974 15.7680352,-0.175994962 16.4720151,0.527984916 C17.175995,1.23196479 17.175995,2.37334169 16.4720151,3.07732158 L8.39911559,11.1502211 L5,12 L5.8497789,8.60088441 L13.9226784,0.527984889 Z" id="Path"></path>
                    </g>
                </g>
            </g>
        </g>
    </g>
</svg>