<?xml version="1.0" encoding="UTF-8"?>
<svg width="16px" height="12px" viewBox="0 0 16 12" version="1.1" xmlns="http://www.w3.org/2000/svg" xmlns:xlink="http://www.w3.org/1999/xlink">
    <!-- Generator: Sketch 54 (76480) - https://sketchapp.com -->
    <title>icon</title>
    <desc>Created with Sketch.</desc>
    <defs>
        <path d="M13.2605739,5.06105221 C13.5029981,4.92882085 13.8067164,5.01814977 13.9389478,5.26057393 C14.0711792,5.5029981 13.9818502,5.80671642 13.7394261,5.93894779 L8.23942607,8.93894779 C8.09018732,9.02035074 7.90981268,9.02035074 7.76057393,8.93894779 L2.26057393,5.93894779 C2.01814977,5.80671642 1.92882085,5.5029981 2.06105221,5.26057393 C2.19328358,5.01814977 2.4970019,4.92882085 2.73942607,5.06105221 L8,7.93045618 L13.2605739,5.06105221 Z M2.5,3 C1.67157288,3 1,3.67157288 1,4.5 L1,11.5 C1,12.3284271 1.67157288,13 2.5,13 L13.5,13 C14.3284271,13 15,12.3284271 15,11.5 L15,4.5 C15,3.67157288 14.3284271,3 13.5,3 L2.5,3 Z M2.5,2 L13.5,2 C14.8807119,2 16,3.11928813 16,4.5 L16,11.5 C16,12.8807119 14.8807119,14 13.5,14 L2.5,14 C1.11928813,14 1.38777878e-16,12.8807119 0,11.5 L0,4.5 C-1.38777878e-16,3.11928813 1.11928813,2 2.5,2 Z" id="path-1"></path>
    </defs>
    <g id="Page-1" stroke="none" stroke-width="1" fill="none" fill-rule="evenodd">
        <g id="9.0-Đăng-nhập" transform="translate(-465.000000, -596.000000)">
            <g id="Input-Field---E-Mail" transform="translate(450.000000, 548.000000)">
                <g id="7.-Form-Bordered-/-1.-Input-/-2.-Top-Label-With-Icon-/-2.-Medium-/-1.-Radius-/-1.-Light">
                    <g id="2.-Icon-/-2.-Icon-Box-/-16-Size--/-ic_email" transform="translate(15.000000, 46.000000)">
                        <mask id="mask-2" fill="white">
                            <use xlink:href="#path-1"></use>
                        </mask>
                        <g id="ic_email" fill-rule="nonzero"></g>
                        <g id="3.-Color-/-2.-Gray-/-2.-Gray-20" mask="url(#mask-2)" fill="#333333" fill-rule="evenodd">
                            <rect id="Gray-20" x="0" y="0" width="16" height="16"></rect>
                        </g>
                    </g>
                </g>
            </g>
        </g>
    </g>
</svg>