<?xml version="1.0" encoding="UTF-8"?>
<svg width="12px" height="23px" viewBox="0 0 12 23" version="1.1" xmlns="http://www.w3.org/2000/svg" xmlns:xlink="http://www.w3.org/1999/xlink">
    <!-- Generator: Sketch 54 (76480) - https://sketchapp.com -->
    <title>facebook-logo</title>
    <desc>Created with Sketch.</desc>
    <g id="Page-1" stroke="none" stroke-width="1" fill="none" fill-rule="evenodd">
        <g id="9.1-Đăng-ký" transform="translate(-593.000000, -1032.000000)" fill="#FFFFFF" fill-rule="nonzero">
            <g id="Group" transform="translate(593.000000, 1032.000000)">
                <g id="Group-2">
                    <g id="facebook-logo">
                        <path d="M11.5481152,0.0047855352 L8.66986088,0 C5.43624084,0 3.34653351,2.22168472 3.34653351,5.66033103 L3.34653351,8.27012266 L0.452577498,8.27012266 C0.20250534,8.27012266 0,8.48020765 0,8.73934438 L0,12.520635 C0,12.7797718 0.202736247,12.9896175 0.452577498,12.9896175 L3.34653351,12.9896175 L3.34653351,22.5310176 C3.34653351,22.7901543 3.54903885,23 3.79911101,23 L7.57490042,23 C7.82497258,23 8.02747792,22.789915 8.02747792,22.5310176 L8.02747792,12.9896175 L11.4111874,12.9896175 C11.6612596,12.9896175 11.8637649,12.7797718 11.8637649,12.520635 L11.8651504,8.73934438 C11.8651504,8.61492047 11.8173527,8.49576064 11.7326098,8.40770679 C11.647867,8.31965294 11.5324136,8.27012266 11.412342,8.27012266 L8.02747792,8.27012266 L8.02747792,6.05776973 C8.02747792,4.99442381 8.27200831,4.45461544 9.60872828,4.45461544 L11.5476534,4.45389761 C11.7974947,4.45389761 12,4.24381262 12,3.98491516 L12,0.473767985 C12,0.215109807 11.7977256,0.00526408872 11.5481152,0.0047855352 Z" id="Path"></path>
                    </g>
                </g>
            </g>
        </g>
    </g>
</svg>