<?xml version="1.0" encoding="UTF-8"?>
<svg width="153px" height="134px" viewBox="0 0 153 134" version="1.1" xmlns="http://www.w3.org/2000/svg" xmlns:xlink="http://www.w3.org/1999/xlink">
    <!-- Generator: Sketch 53.2 (72643) - https://sketchapp.com -->
    <title>icon / failed</title>
    <desc>Created with Sketch.</desc>
    <g id="Page-1" stroke="none" stroke-width="1" fill="none" fill-rule="evenodd">
        <g id="7.0.1-Lỗi-xảy-ra" transform="translate(-644.000000, -220.000000)" fill="#006790" fill-rule="nonzero">
            <g id="icon-/-failed" transform="translate(644.000000, 220.000000)">
                <path d="M151.028831,112.772313 L88.270713,6.77022837 C85.7982079,2.59426508 81.287993,0 76.4998678,0 C71.7117425,0 67.2015276,2.59426508 64.7287237,6.77053272 L1.97090421,112.772313 C-0.584376248,117.088581 -0.659979798,122.496242 1.77337873,126.884945 C4.20733491,131.273648 8.7931534,134 13.7417494,134 L139.257986,134 C144.206582,134 148.792699,131.273648 151.226656,126.884641 C153.660014,122.495634 153.584411,117.087973 151.028831,112.772313 Z M142.552867,121.896067 C141.882894,123.104026 140.620344,123.854853 139.257986,123.854853 L13.7417494,123.854853 C12.3793914,123.854853 11.116842,123.10433 10.4471678,121.896372 C9.77719487,120.688109 9.79811285,119.199237 10.5012557,118.011365 L73.2596729,12.0092804 C73.9404037,10.8597567 75.1820351,10.1454512 76.5001666,10.1454512 C77.8179992,10.1454512 79.0596307,10.8597567 79.7403614,12.0092804 L142.498181,118.011365 C143.201922,119.199541 143.22284,120.688109 142.552867,121.896067 Z" id="Shape"></path>
                <path d="M77.048235,42 C73.0895346,42 70,44.0973314 70,47.8154402 C70,59.1596482 71.3515153,75.4611291 71.3515153,86.8056454 C71.3518275,89.7608359 73.9590126,91 77.0485472,91 C79.3656981,91 82.6484847,89.7608359 82.6484847,86.8056454 C82.6484847,75.4614373 84,59.1599565 84,47.8154402 C84,44.0976397 80.8139955,42 77.048235,42 Z" id="Path"></path>
                <path d="M77.045711,95 C73.0198863,95 70,98.6361804 70,103 C70,107.259679 73.0195904,111 77.045711,111 C80.7972696,111 84,107.259679 84,103 C84,98.6361804 80.7969737,95 77.045711,95 Z" id="Path"></path>
            </g>
        </g>
    </g>
</svg>