<?xml version="1.0" encoding="UTF-8"?>
<svg width="20px" height="18px" viewBox="0 0 20 18" version="1.1" xmlns="http://www.w3.org/2000/svg" xmlns:xlink="http://www.w3.org/1999/xlink">
    <!-- Generator: sketchtool 53.2 (72643) - https://sketchapp.com -->
    <title>4A4261F0-7BE3-4DD3-ABA5-2C4D0DF3469B</title>
    <desc>Created with sketchtool.</desc>
    <g id="Page-1" stroke="none" stroke-width="1" fill="none" fill-rule="evenodd">
        <g id="2.0-Xem-vé" transform="translate(-1040.000000, -217.000000)" fill="#006790" fill-rule="nonzero">
            <g id="icon-/-filter" transform="translate(1040.000000, 217.000000)">
                <path d="M19.9421289,0.33941121 C19.8420726,0.132181766 19.6284627,0 19.3938394,0 L0.606192479,0 C0.371569151,0 0.158040101,0.132181766 0.0579028966,0.33941121 C-0.0421534866,0.546640654 -0.0107949432,0.791591223 0.138481422,0.968359675 L7.36072573,9.52142748 L7.36072573,17.4081413 C7.36072573,17.6129244 7.46910668,17.8031084 7.64723613,17.9110634 C7.74486789,17.9701703 7.85567346,18 7.96688314,18 C8.0587766,18 8.15099335,17.9795611 8.23601703,17.9384467 L12.2938772,15.9746597 C12.5000515,15.8749118 12.6304966,15.669813 12.6308199,15.4451435 L12.6387404,9.52166422 L19.8613888,0.96828076 C20.010746,0.791591223 20.0421853,0.54656174 19.9421289,0.33941121 Z M11.565276,8.93233083 C11.4759688,9.03807624 11.4269913,9.17088932 11.4268296,9.3080427 L11.4190708,15.0769285 L8.57312137,16.454223 L8.57312137,9.30883185 C8.57312137,9.17144172 8.52422467,9.03831298 8.43467502,8.93233083 L1.89156947,1.1836384 L18.1083815,1.1836384 L11.565276,8.93233083 Z" id="Shape"></path>
            </g>
        </g>
    </g>
</svg>