<?xml version="1.0" encoding="UTF-8"?>
<svg width="33px" height="20px" viewBox="0 0 33 20" version="1.1" xmlns="http://www.w3.org/2000/svg" xmlns:xlink="http://www.w3.org/1999/xlink">
    <!-- Generator: Sketch 54 (76480) - https://sketchapp.com -->
    <title>google-plus</title>
    <desc>Created with Sketch.</desc>
    <g id="Page-1" stroke="none" stroke-width="1" fill="none" fill-rule="evenodd">
        <g id="9.1-Đăng-ký" transform="translate(-593.000000, -1102.000000)" fill="#FFFFFF" fill-rule="nonzero">
            <g id="Group-3" transform="translate(593.000000, 1102.000000)">
                <g id="google-plus">
                    <polygon id="Path" points="28.6 8 28.6 4 26.4 4 26.4 8 22 8 22 10 26.4 10 26.4 14 28.6 14 28.6 10 33 10 33 8"></polygon>
                    <path d="M10,8 L10,12 L15.658,12 C14.832,14.328 12.608,16 10,16 C6.692,16 4,13.308 4,10 C4,6.692 6.692,4 10,4 C11.434,4 12.814,4.514 13.886,5.448 L16.514,2.432 C14.714,0.864 12.402,0 10,0 C4.486,0 0,4.486 0,10 C0,15.514 4.486,20 10,20 C15.514,20 20,15.514 20,10 L20,8 L10,8 Z" id="Path"></path>
                </g>
            </g>
        </g>
    </g>
</svg>