<?xml version="1.0" encoding="UTF-8"?>
<svg width="132px" height="42px" viewBox="0 0 132 42" version="1.1" xmlns="http://www.w3.org/2000/svg" xmlns:xlink="http://www.w3.org/1999/xlink">
    <!-- Generator: sketchtool 53.2 (72643) - https://sketchapp.com -->
    <title>3C90264D-C9FC-40D5-95FF-33B71733BD91</title>
    <desc>Created with sketchtool.</desc>
    <defs>
        <polygon id="path-1" points="0.0384191235 0.0478733068 18.5299649 0.0478733068 18.5299649 21.0836653 0.0384191235 21.0836653"></polygon>
        <polygon id="path-3" points="0.0736666627 0.120310757 31.652204 0.120310757 31.652204 11.8520273 0.0736666627 11.8520273"></polygon>
    </defs>
    <g id="Page-1" stroke="none" stroke-width="1" fill="none" fill-rule="evenodd">
        <g id="1.0-Homepage-V1" transform="translate(-165.000000, -19.000000)">
            <g id="Header">
                <g id="Group-35" transform="translate(165.000000, 19.000000)">
                    <g id="Group-3" transform="translate(98.892430, 20.796024)">
                        <mask id="mask-2" fill="white">
                            <use xlink:href="#path-1"></use>
                        </mask>
                        <g id="Clip-2"></g>
                        <path d="M14.5811283,9.36969801 C13.5179092,9.05344303 12.1511522,8.75626375 10.480188,8.47732351 C8.98609243,8.24958645 7.8982757,8.00913227 7.21472988,7.75579363 C6.53118406,7.5031243 6.18949482,7.06003267 6.18949482,6.42702072 C6.18949482,5.87047888 6.50558247,5.41467012 7.13892908,5.05992908 C7.77127171,4.70569004 8.72070598,4.52848685 9.98656255,4.52848685 C12.1128335,4.52848685 14.074451,5.03499681 15.8722518,6.04734741 L17.8467538,1.83245498 C16.909702,1.27591315 15.7263394,0.83918008 14.2963315,0.522590438 C12.8658215,0.206000797 11.4292876,0.0478733068 9.98656255,0.0478733068 C8.03716016,0.0478733068 6.34728765,0.326478884 4.91727968,0.883020717 C3.48693705,1.4403992 2.39811633,2.21848685 1.65198884,3.21812032 C0.905024701,4.21859044 0.532044622,5.36380159 0.532044622,6.65475777 C0.532044622,8.19905259 0.930793625,9.38843904 1.72778964,10.2240884 C2.52512032,11.0594032 3.46802869,11.6417139 4.5568494,11.9706861 C5.6450008,12.2999928 7.02480956,12.5913155 8.69543904,12.8441522 C10.1128972,13.021188 11.1637339,13.2365426 11.8472797,13.4893793 C12.5304908,13.7430526 12.8723474,14.16071 12.8723474,14.7425187 C12.8723474,15.9831084 11.619208,16.6030685 9.11309641,16.6030685 C7.8726741,16.6030685 6.60715219,16.4196741 5.31602869,16.0525506 C4.02507251,15.6859291 2.92386932,15.211212 2.01258645,14.6289012 L0.0384191235,18.881443 C0.999901195,19.5142876 2.29085737,20.039706 3.91112032,20.4573633 C5.53104861,20.8748534 7.18912829,21.0836821 8.88552669,21.0836821 C10.8847936,21.0836821 12.6126502,20.8112677 14.0685944,20.2672757 C15.523702,19.7231163 16.6314311,18.9574112 17.390945,17.9699928 C18.150459,16.9827418 18.5299649,15.856941 18.5299649,14.5905825 C18.5299649,13.0971562 18.1374072,11.932702 17.352961,11.0972199 C16.5680127,10.2620725 15.6443474,9.68662231 14.5811283,9.36969801" id="Fill-1" fill="#066891" mask="url(#mask-2)"></path>
                    </g>
                    <g id="Group-6" transform="translate(99.561753, 0.047020)">
                        <mask id="mask-4" fill="white">
                            <use xlink:href="#path-3"></use>
                        </mask>
                        <g id="Clip-5"></g>
                        <path d="M30.2892956,0.543992032 C30.2431124,0.57561753 30.2171761,0.644223108 30.1934151,0.700446215 C30.0242438,1.09785657 29.7165227,1.35822311 29.342204,1.54379283 C29.2230645,1.60302789 29.0712956,1.77454183 28.9575108,1.52354582 C28.8693275,1.32910757 28.8095904,1.15056574 29.0952239,1.05669323 C29.2008096,1.02205578 29.298196,0.947426295 29.386212,0.874972112 C29.5485227,0.74110757 29.7431283,0.588 29.6867378,0.361099602 C29.6270008,0.120478088 29.3656303,0.168 29.1813992,0.148756972 C28.0812,0.0334661355 27.0360526,0.27910757 26.025208,0.682709163 C24.7715665,1.18286056 23.5281323,1.7072749 22.2788414,2.21796813 C17.9312558,3.99485259 13.5816622,5.76705179 9.23708845,7.55163347 C8.83114422,7.71846215 8.44159841,7.70423904 8.04218008,7.59396813 C7.80088924,7.52737052 7.56478566,7.43751394 7.33336733,7.3418008 C5.56217211,6.6087251 3.85707251,5.73659761 2.15916813,4.851251 C1.87169402,4.70149004 1.61283347,4.68576096 1.32301673,4.81661355 C1.02751076,4.94980876 0.72179761,5.06024701 0.421439044,5.18273307 C-0.00525418327,5.35675697 -0.0161306773,5.40026295 0.262809562,5.77843028 C0.293765737,5.82059761 0.324721912,5.86293227 0.355845418,5.90493227 C1.34242709,7.2327012 2.32281753,8.56515538 3.32061036,9.88439044 C3.50567809,10.1291952 3.47455458,10.2327729 3.21000478,10.3663028 C2.86530359,10.5401594 2.53984542,10.7538406 2.21455458,10.963506 C1.86215618,11.1905737 1.84441912,11.4258406 2.13005259,11.7310518 C2.26425179,11.8746215 2.43057849,11.8552112 2.59774183,11.845004 C4.88264223,11.7056175 7.13340717,11.3689482 9.35857052,10.880008 C9.42968606,10.7993546 9.50565418,10.7225498 9.57593307,10.6413944 C9.57593307,10.6413944 9.55752669,10.7165259 9.52221992,10.8472112 C10.3459888,10.6631474 11.1672478,10.4608446 11.9841562,10.2349482 C13.8355028,9.72308367 15.6038534,8.99335458 17.3720367,8.25877291 C17.5274869,8.19401594 17.6568335,8.15737052 17.7930406,8.30847012 C17.935439,8.46609562 17.9914948,8.62388845 17.896451,8.82050199 C17.8738614,8.86752191 17.8460845,8.9121992 17.8209849,8.95821514 C17.4083474,9.71053386 16.994706,10.4623506 16.5842438,11.216008 C16.5417418,11.2936494 16.4528892,11.3769801 16.5303633,11.4706853 C16.592945,11.5459841 16.6864829,11.4989641 16.7674709,11.4855777 C16.973957,11.4516096 17.1792717,11.4055936 17.3872637,11.3870199 C17.7985625,11.3503745 18.0937339,11.1534263 18.3631363,10.838008 C19.5724351,9.41988048 20.8080048,8.02400797 22.0214869,6.60939442 C22.2607697,6.33045418 22.5305068,6.13517928 22.8705227,5.9972988 C24.8677817,5.18792032 26.863702,4.37536255 28.8504191,3.54088446 C29.7324191,3.17058167 30.5533434,2.68649402 31.2402359,2.00495618 C31.4507378,1.79612749 31.6247618,1.56136255 31.652204,1.22552988 C31.6451761,1.17516335 31.6438375,1.10036653 31.6232558,1.03125896 C31.5159968,0.670661355 30.5965147,0.333155378 30.2892956,0.543992032" id="Fill-4" fill="#E52832" mask="url(#mask-4)"></path>
                    </g>
                    <path d="M105.46948,8.51167649 C106.25493,8.9480749 107.041886,9.38162869 107.82901,9.81484781 C107.920037,9.86487968 108.007217,9.91474422 108.12301,9.86672032 C108.864284,9.55883187 109.607567,9.25579602 110.365408,8.94523028 C110.30634,8.81872829 110.221002,8.83579602 110.154404,8.81906295 C109.243288,8.58931793 108.318452,8.40240956 107.4234,8.12129402 C106.750731,7.90995538 106.13328,7.96701514 105.50646,8.22202709 C105.4325,8.25181195 105.319886,8.24913466 105.306165,8.34719044 C105.291775,8.44926215 105.401376,8.47369243 105.46948,8.51167649" id="Fill-7" fill="#75142A"></path>
                    <path d="M20.2296932,35.8801315 L5.69401195,35.8801315 L5.69401195,27.1588566 L16.169247,27.1588566 C16.9538606,27.1588566 17.6265299,26.8866096 18.1874223,26.3419482 C18.7479801,25.7813904 19.0284263,25.1087211 19.0284263,24.3237729 C19.0284263,23.5391594 18.7479801,22.86649 18.1874223,22.3055976 C17.6265299,21.7612709 16.9538606,21.4886892 16.169247,21.4886892 L5.69401195,21.4886892 L5.69401195,12.7674143 L20.2055976,12.8154382 L20.2296932,12.8154382 C21.0141394,12.8154382 21.6791116,12.5353267 22.2237729,11.9746016 C22.7843307,11.4301076 23.0646096,10.7653028 23.0646096,9.98035458 C23.0646096,9.19574104 22.7921952,8.52307171 22.2478685,7.96217928 C21.6869761,7.40178884 21.0141394,7.12134263 20.2296932,7.12134263 L2.85909562,7.07331873 L2.835,7.07331873 C2.05005179,7.07331873 1.38524701,7.35376494 0.840920319,7.91415538 C0.280027888,8.45881673 8.36653386e-05,9.13165339 8.36653386e-05,9.93233068 L8.36653386e-05,38.7391434 C8.36653386e-05,39.5240916 0.280027888,40.1890637 0.840920319,40.7333904 C1.17909562,41.0817729 1.56947809,41.3088406 2.00085657,41.4405299 C2.0560757,41.4575976 2.10978884,41.4773426 2.16651394,41.4907291 C2.37969323,41.540761 2.60023506,41.5742271 2.835,41.5742271 L3.54364542,41.5742271 L6.93945418,41.5742271 C10.4179243,41.64049 14.3481873,41.6547131 18.5965458,41.5742271 L20.2296932,41.5742271 C20.412753,41.5742271 20.5876135,41.5556534 20.7574542,41.5251992 C21.3163386,41.4251355 21.8061155,41.1634303 22.2237729,40.7333904 C22.7843307,40.1890637 23.0646096,39.5240916 23.0646096,38.7391434 C23.0646096,37.9545299 22.7843307,37.2818606 22.2237729,36.7209681 C21.6791116,36.1605777 21.0141394,35.8801315 20.2296932,35.8801315" id="Fill-9" fill="#066891"></path>
                    <path d="M33.5458016,13.4013633 L27.621961,13.4013633 L27.621961,41.2328056 C29.5593155,41.1293952 31.5388375,41.0005506 33.5458016,40.847443 L33.5458016,13.4013633 Z" id="Fill-11" fill="#066891"></path>
                    <path d="M33.5458016,41.5759171 L33.5458016,40.8473594 C31.5388375,41.0006343 29.5593155,41.1294789 27.621961,41.2327219 L27.621961,41.5759171 L33.5458016,41.5759171 Z" id="Fill-13" fill="#20B6E9"></path>
                    <path d="M44.9749386,21.1476861 L39.0512653,21.1476861 L39.0512653,40.3652797 C41.0097036,40.1701721 42.9877195,39.945447 44.9749386,39.6927777 L44.9749386,21.1476861 Z" id="Fill-15" fill="#066891"></path>
                    <path d="M42.0130685,18.2996343 C43.1010526,18.2996343 43.9875705,17.9770207 44.6707817,17.3316263 C45.3543275,16.6858972 45.6963514,15.8696582 45.6963514,14.8822398 C45.6963514,13.970957 45.3543275,13.2117777 44.6707817,12.6038653 C43.9875705,11.996455 43.1010526,11.6927498 42.0130685,11.6927498 C40.9242478,11.6927498 40.0383992,12.0095068 39.3548534,12.6421841 C38.6718096,13.275196 38.3297857,14.0601442 38.3297857,14.996192 C38.3297857,15.9332438 38.6718096,16.7178574 39.3548534,17.3505347 C40.0383992,17.9835466 40.9242478,18.2996343 42.0130685,18.2996343" id="Fill-17" fill="#066891"></path>
                    <path d="M44.9749386,41.5759171 L44.9749386,39.6927777 C42.9877195,39.945447 41.0097036,40.1701721 39.0512653,40.3652797 L39.0512653,41.5759171 L44.9749386,41.5759171 Z" id="Fill-19" fill="#20B6E9"></path>
                    <path d="M69.0289745,23.1221546 C67.4719625,21.6031267 65.4276837,20.8439474 62.8964725,20.8439474 C61.5042813,20.8439474 60.2255402,21.078043 59.061588,21.5464016 C57.8971339,22.0149275 56.922098,22.6793976 56.1378191,23.539812 L56.1378191,21.1476526 L50.4798669,21.1476526 L50.4798669,38.9188398 C52.4557076,38.6112861 54.4327195,38.2679235 56.4037076,37.8927681 L56.4037076,31.4756367 C56.4037076,29.6530709 56.8461299,28.2801227 57.7326478,27.3559554 C58.6184964,26.4321227 59.8080502,25.9699554 61.3016438,25.9699554 C62.6433012,25.9699554 63.6683689,26.3685371 64.377349,27.1660351 C65.0859944,27.9633657 65.4407355,29.1724972 65.4407355,30.7920908 L65.4407355,35.8963458 C67.4384964,35.3886645 69.4175163,34.8429992 71.3640741,34.2468 L71.3640741,29.8809753 C71.3640741,26.89429 70.5856518,24.6410151 69.0289745,23.1221546" id="Fill-21" fill="#066891"></path>
                    <path d="M65.4406685,41.5759171 L71.3640072,41.5759171 L71.3640072,34.2468335 C69.4176167,34.8430327 67.4384295,35.3885307 65.4406685,35.8963793 L65.4406685,41.5759171 Z" id="Fill-23" fill="#20B6E9"></path>
                    <path d="M50.4799339,41.5759171 L56.4037745,41.5759171 L56.4037745,37.8928016 C54.4326191,38.2677896 52.4556072,38.6113195 50.4799339,38.9188733 L50.4799339,41.5759171 Z" id="Fill-25" fill="#20B6E9"></path>
                    <path d="M81.312251,29.5771363 C81.5145538,28.2614151 82.0719323,27.2231283 82.9830478,26.4636143 C83.894498,25.7041004 85.0202988,25.3245944 86.3622908,25.3245944 C87.6785139,25.3245944 88.7926016,25.7106263 89.7038845,26.4825227 C89.7077331,26.4855347 89.7104104,26.4897179 89.714259,26.4928972 C91.1948008,25.6383394 92.6229681,24.7364271 93.9945777,23.7861562 C93.3403147,23.1365785 92.5966972,22.5825466 91.7541873,22.1349371 C90.1339243,21.27469 88.323741,20.8439809 86.3244741,20.8439809 C84.2741713,20.8439809 82.4193108,21.2934311 80.7615657,22.1916622 C79.1034861,23.0905625 77.8001474,24.3438693 76.8505458,25.9509131 C75.9014462,27.5587936 75.4267291,29.362451 75.4267291,31.3617179 C75.4267291,31.882953 75.4598606,32.3894629 75.5234462,32.8820845 C78.3543466,31.8918215 81.1005777,30.7926263 83.7355339,29.5771363 L81.312251,29.5771363 Z" id="Fill-27" fill="#066891"></path>
                    <path d="M96.8422948,33.0325649 C96.9184303,32.0453139 96.956247,31.5135371 96.956247,31.4379036 C96.956247,30.5132343 96.8633785,29.6409394 96.6888526,28.8148279 C95.7081275,30.2101984 94.5888526,31.6315052 93.3149641,33.0325649 L96.8422948,33.0325649 Z" id="Fill-29" fill="#066891"></path>
                    <path d="M87.0840215,41.8796892 C90.7796869,41.8796892 93.5895036,40.7784861 95.5134717,38.576247 L92.3616311,35.1588526 C91.6528183,35.8423984 90.8869458,36.3425498 90.0645155,36.6588048 C89.8168661,36.7540159 89.5548263,36.8301514 89.2855912,36.896749 C87.3945873,38.4760159 85.2616231,39.9595697 82.8590892,41.266757 C84.153894,41.6626614 85.5546191,41.8796892 87.0840215,41.8796892" id="Fill-31" fill="#066891"></path>
                    <path d="M96.6888693,28.8148279 C96.4619689,27.7403976 96.0926701,26.7461187 95.5700964,25.8370112 C95.1266701,25.0657841 94.5982398,24.3855849 93.9945108,23.786039 C92.6229012,24.7364773 91.1947339,25.6383896 89.714192,26.4929474 C90.618949,27.2645092 91.1726462,28.2914175 91.3747817,29.5771865 L83.7356343,29.5771865 C81.1006781,30.7925092 78.354447,31.8918717 75.5235466,32.8821347 C75.7071084,34.3039434 76.1550526,35.6071147 76.8698892,36.7914813 C77.8313713,38.38631 79.1984629,39.6332582 80.9706622,40.5318239 C81.566192,40.8340231 82.2032199,41.0662781 82.8591562,41.2667402 C85.26169,39.9597203 87.3946542,38.4759992 89.2856582,36.8967323 C88.6600088,37.0515131 87.9791402,37.1335052 87.23569,37.1335052 C85.6913952,37.1335052 84.400439,36.7667163 83.3624869,36.032302 C82.3243673,35.2982223 81.6667578,34.2984215 81.3884869,33.0325649 L93.3149809,33.0325649 C94.5888693,31.6315052 95.7081442,30.2101984 96.6888693,28.8148279" id="Fill-33" fill="#20B6E9"></path>
                </g>
            </g>
        </g>
    </g>
</svg>