<?xml version="1.0" encoding="UTF-8"?>
<svg width="21px" height="18px" viewBox="0 0 21 18" version="1.1" xmlns="http://www.w3.org/2000/svg" xmlns:xlink="http://www.w3.org/1999/xlink">
    <!-- Generator: Sketch 53.2 (72643) - https://sketchapp.com -->
    <title>house</title>
    <desc>Created with Sketch.</desc>
    <g id="Page-1" stroke="none" stroke-width="1" fill="none" fill-rule="evenodd">
        <g id="6.1.1-TT-tại-quầy" transform="translate(-165.000000, -365.000000)" fill="#006790" fill-rule="nonzero">
            <g id="house" transform="translate(165.000000, 365.000000)">
                <path d="M20.2097639,8.49697766 L10.6675914,0.166518025 C10.5816923,0.0915285496 10.473017,0.0413461986 10.355665,0.018054013 C10.1400496,-0.0306133991 9.90122414,0.0191902172 9.73267975,0.166518025 L7.87088237,1.7918581 L7.87088237,1.14706223 C7.87088237,0.833280508 7.57956303,0.57896014 7.2201318,0.57896014 L3.71714148,0.57896014 C3.35771025,0.57896014 3.06639091,0.833280508 3.06639091,1.14706223 L3.06639091,5.9861558 L0.190507229,8.49697766 C-0.0635024097,8.71872684 -0.0635024097,9.07833546 0.190507229,9.30027401 L1.89482297,10.7881334 C2.01694716,10.8947472 2.18245472,10.9545873 2.35490362,10.9545873 C2.52735252,10.9545873 2.693077,10.8947472 2.81498428,10.7881334 L3.066174,10.568846 L3.066174,17.4318979 C3.066174,17.7456796 3.35749333,18 3.71692457,18 L7.6242479,18 C7.98367913,18 8.27499847,17.7456796 8.27499847,17.4318979 L8.27499847,11.6351736 L12.2335142,11.6351736 L12.2335142,17.4318979 C12.2335142,17.7456796 12.5248335,18 12.8842648,18 L16.6829127,18 C17.042344,18 17.3336633,17.7456796 17.3336633,17.4318979 L17.3336633,10.5692247 L17.5844192,10.7881334 C17.8386458,11.0100719 18.250354,11.0100719 18.5045805,10.7881334 L20.2093301,9.30027401 C20.3314543,9.19366018 20.4,9.04936225 20.4,8.89862583 C20.4,8.74788941 20.3318881,8.60340212 20.2097639,8.49697766 Z M4.36789205,1.71516431 L6.56916431,1.71516431 L6.56916431,2.92806227 L4.36789205,4.84995163 L4.36789205,1.71516431 Z M16.0323791,16.8637958 L13.5354492,16.8637958 L13.5354492,11.0670715 C13.5354492,10.7532898 13.2441298,10.4989694 12.8846986,10.4989694 L7.62446482,10.4989694 C7.26503359,10.4989694 6.97371425,10.7532898 6.97371425,11.0670715 L6.97371425,16.8637958 L4.36789205,16.8637958 L4.36789205,9.4326418 L10.2003525,4.34074279 L16.0323791,9.43283116 L16.0323791,16.8637958 Z M18.0449337,9.58299948 L10.6604331,3.13579827 C10.538309,3.02918444 10.3730183,2.96934435 10.2005694,2.96934435 C10.0279036,2.96934435 9.86239603,3.02899507 9.74048875,3.13579827 L2.35512054,9.58299948 L1.5709661,8.89862583 L10.2001356,1.36502406 L18.8290881,8.89843647 L18.0449337,9.58299948 Z" id="Shape"></path>
            </g>
        </g>
    </g>
</svg>