<?xml version="1.0" encoding="UTF-8"?>
<svg width="67px" height="50px" viewBox="0 0 67 50" version="1.1" xmlns="http://www.w3.org/2000/svg" xmlns:xlink="http://www.w3.org/1999/xlink">
    <!-- Generator: Sketch 53.2 (72643) - https://sketchapp.com -->
    <title>ico departures</title>
    <desc>Created with Sketch.</desc>
    <g id="Page-1" stroke="none" stroke-width="1" fill="none" fill-rule="evenodd">
        <g id="1.0-Homepage-V1" transform="translate(-1115.000000, -1935.000000)" fill="#FFFFFF" fill-rule="nonzero">
            <g id="Group-4" transform="translate(0.000000, 1700.000000)">
                <g id="Moon-Copy-3" transform="translate(1072.000000, 235.000000)">
                    <g id="ico-departures" transform="translate(43.000000, 0.000000)">
                        <path d="M53.8860104,2.89326425 C46.0739637,2.89326425 37.1040155,6.99132124 36.7253886,7.1626943 C36.0317358,7.48329016 35.7278497,8.30401554 36.0483161,8.99753886 C36.3689119,9.68834197 37.1896373,9.99235751 37.8831606,9.6746114 C37.9716321,9.63316062 46.6873057,5.65660622 53.8858808,5.65660622 C60.932513,5.65660622 63.557772,7.35051813 63.557772,8.41994819 C63.557772,13.5737047 20.2997409,30.5270725 11.0534974,30.5270725 C9.50051813,30.5270725 5.3388601,30.5270725 3.38782383,30.1733161 C4.29417098,29.4603627 5.91904145,28.4462435 7.54119171,27.6089378 C7.89209845,27.4265544 8.14637306,27.1088083 8.24585492,26.7274611 C8.34533679,26.346114 8.27629534,25.9398964 8.05790155,25.6138601 L3.1611399,18.2660622 L4.41852332,17.0086788 L14.5795337,22.090544 C14.9664508,22.2839378 15.4251295,22.2839378 15.8147668,22.090544 L24.1049223,17.9454663 C24.7874352,17.6028497 25.0665803,16.7738342 24.7239637,16.0911917 C24.3813472,15.411399 23.5523316,15.1322539 22.8696891,15.475 L15.1985751,19.3106218 L4.76398964,14.090544 C4.23069948,13.8252591 3.58950777,13.9274611 3.16955959,14.3502591 L0.406217617,17.113601 C-0.0607512953,17.5805699 -0.132642487,18.3101036 0.232124352,18.8572539 L4.91606218,25.8817358 C0,28.6259067 0,29.9882124 0,30.5270725 C0,33.0168394 3.53989637,33.2904145 11.0534974,33.2904145 C18.4095855,33.2904145 66.3212435,17.1107513 66.3212435,8.41994819 C66.3212435,6.75647668 65.1108808,2.89326425 53.8860104,2.89326425 Z" id="Path"></path>
                        <path d="M41.4397668,9.63031088 C41.3707254,9.08588083 40.9893782,8.63549223 40.4642487,8.47797927 L12.8304404,0.187823834 C12.3440415,0.0413212435 11.8190415,0.173963731 11.4569948,0.533290155 L5.93018135,6.06010363 C5.6261658,6.36411917 5.47979275,6.79235751 5.53782383,7.22072539 C5.59585492,7.64909326 5.85012953,8.02487047 6.22318653,8.2376943 L25.5668394,19.2911917 C25.7796632,19.4128238 26.017228,19.4735751 26.2522021,19.4735751 C26.4981865,19.4735751 26.7440415,19.4072539 26.9624352,19.2773316 L40.7794041,10.9871762 C41.2490933,10.7053109 41.5060881,10.1720207 41.4397668,9.63031088 Z M26.232772,16.4918394 L9.16334197,6.73704663 L12.8303109,3.07279793 L36.6727979,10.2272021 L26.232772,16.4918394 Z" id="Shape"></path>
                        <path d="M62.1761658,4.27487047 C56.2128238,4.27487047 53.0514249,7.30349741 52.9187824,7.43069948 C52.3772021,7.96398964 52.3689119,8.82901554 52.8966321,9.3761658 C53.1646373,9.65531088 53.5266839,9.79624352 53.8887306,9.79624352 C54.2313472,9.79624352 54.5768135,9.66917098 54.8448187,9.41489637 C54.9470207,9.31813472 57.3981865,7.03834197 62.1760363,7.03834197 C62.9387306,7.03834197 63.557772,6.41930052 63.557772,5.65660622 C63.557772,4.89391192 62.9388601,4.27487047 62.1761658,4.27487047 Z" id="Path"></path>
                        <path d="M55.2317358,37.0984456 L51.086658,20.5181347 C50.9015544,19.7747409 50.1443005,19.3270725 49.4120466,19.5123057 C48.6715026,19.6974093 48.2209845,20.4463731 48.4062176,21.1869171 L52.2804404,36.692228 L48.7322539,38.4663212 L36.996114,24.1243523 C36.509715,23.5301813 35.6392487,23.4445596 35.0506477,23.9281088 C34.4593264,24.4145078 34.3708549,25.2849741 34.8544041,25.8735751 L47.2896373,41.0721503 C47.5576425,41.4037565 47.9555699,41.5805699 48.3590674,41.5805699 C48.5690415,41.5805699 48.7791451,41.5335492 48.9835492,41.4313472 L54.5103627,38.6680052 C55.0880829,38.3778497 55.3892487,37.7256477 55.2317358,37.0984456 Z" id="Path"></path>
                        <path d="M31.778886,47.1073834 L1.38173575,47.1073834 C0.619041451,47.1073834 0,47.7264249 0,48.4891192 C0,49.2518135 0.619041451,49.8708549 1.38173575,49.8708549 L31.7790155,49.8708549 C32.5417098,49.8708549 33.1607513,49.2518135 33.1607513,48.4891192 C33.1606218,47.7264249 32.5415803,47.1073834 31.778886,47.1073834 Z" id="Path"></path>
                    </g>
                </g>
            </g>
        </g>
    </g>
</svg>