<?xml version="1.0" encoding="UTF-8"?>
<svg width="19px" height="17px" viewBox="0 0 19 17" version="1.1" xmlns="http://www.w3.org/2000/svg" xmlns:xlink="http://www.w3.org/1999/xlink">
    <!-- Generator: Sketch 53.2 (72643) - https://sketchapp.com -->
    <title>ico flight</title>
    <desc>Created with Sketch.</desc>
    <g id="Page-1" stroke="none" stroke-width="1" fill="none" fill-rule="evenodd">
        <g id="2.2-Ticket-Selected-and-Detail" transform="translate(-1101.000000, -506.000000)" fill="#006790">
            <g id="Group-9" transform="translate(1040.000000, 503.000000)">
                <g id="destination-icon" transform="translate(58.000000, 0.000000)">
                    <g id="ico-flight">
                        <path d="M17.4479799,4.02426869 C17.1685234,4.04575671 16.9255559,4.14158166 16.7188906,4.33042145 L12.7190862,7.78838144 L5.41062116,7.02150082 C5.22462805,7.00469632 5.01926998,7.06279079 4.8876369,7.1948475 L4.13544787,7.94945728 C3.90979116,8.17584022 3.98071504,8.52997102 4.24005966,8.65809357 L9.40777383,11.2767656 L6.92162849,14.1592139 L4.94718831,14.2724615 C4.8354804,14.2735856 4.74183025,14.330556 4.68504259,14.4245075 L4.51523984,14.6503285 C4.34543709,14.8761494 4.41673445,15.1929244 4.67607907,15.3210469 L6.71397353,16.3090462 L7.69880335,18.3534992 C7.82651489,18.6136784 8.14227368,18.6852052 8.36737017,18.514856 L8.59246666,18.3445068 C8.66749882,18.2877237 8.72447322,18.1750943 8.74402491,18.0815174 L8.85709602,16.082045 L11.7304843,13.5692207 L14.3407557,18.753566 C14.4682805,19.0324232 14.84008,19.08471 15.0471187,18.8585145 L15.7993078,18.1039047 C15.9309409,17.971848 16.0074669,17.7656417 15.9720984,17.5792373 L15.2076779,10.2472516 L18.6729761,6.25306526 C18.8612101,6.04573491 18.9569144,5.78330756 18.9781468,5.52162957 L18.9999393,5.20391787 C19.006662,4.53151334 18.4539113,3.95811856 17.7646724,4.00240599 L17.4479799,4.02426869 Z" id="Shape" transform="translate(11.500000, 11.500000) rotate(45.000000) translate(-11.500000, -11.500000) "></path>
                    </g>
                </g>
            </g>
        </g>
    </g>
</svg>