<?xml version="1.0" encoding="UTF-8"?>
<svg width="49px" height="17px" viewBox="0 0 49 17" version="1.1" xmlns="http://www.w3.org/2000/svg" xmlns:xlink="http://www.w3.org/1999/xlink">
    <!-- Generator: Sketch 53.2 (72643) - https://sketchapp.com -->
    <title>ico flight with arrow</title>
    <desc>Created with Sketch.</desc>
    <g id="Page-1" stroke="none" stroke-width="1" fill="none" fill-rule="evenodd">
        <g id="2.2-Ticket-Selected-and-Detail" transform="translate(-402.000000, -298.000000)" fill="#006790">
            <g id="Group-8" transform="translate(165.000000, 292.000000)">
                <g id="Group-9" transform="translate(86.000000, 0.000000)">
                    <g id="destination-icon" transform="translate(151.000000, 3.000000)">
                        <g id="ico-flight-with-arrow">
                            <path d="M44.4479799,4.02426869 C44.1685234,4.04575671 43.9255559,4.14158166 43.7188906,4.33042145 L39.7190862,7.78838144 L32.4106212,7.02150082 C32.224628,7.00469632 32.01927,7.06279079 31.8876369,7.1948475 L31.1354479,7.94945728 C30.9097912,8.17584022 30.980715,8.52997102 31.2400597,8.65809357 L36.4077738,11.2767656 L33.9216285,14.1592139 L31.9471883,14.2724615 C31.8354804,14.2735856 31.7418303,14.330556 31.6850426,14.4245075 L31.5152398,14.6503285 C31.3454371,14.8761494 31.4167345,15.1929244 31.6760791,15.3210469 L33.7139735,16.3090462 L34.6988033,18.3534992 C34.8265149,18.6136784 35.1422737,18.6852052 35.3673702,18.514856 L35.5924667,18.3445068 C35.6674988,18.2877237 35.7244732,18.1750943 35.7440249,18.0815174 L35.857096,16.082045 L38.7304843,13.5692207 L41.3407557,18.753566 C41.4682805,19.0324232 41.84008,19.08471 42.0471187,18.8585145 L42.7993078,18.1039047 C42.9309409,17.971848 43.0074669,17.7656417 42.9720984,17.5792373 L42.2076779,10.2472516 L45.6729761,6.25306526 C45.8612101,6.04573491 45.9569144,5.78330756 45.9781468,5.52162957 L45.9999393,5.20391787 C46.006662,4.53151334 45.4539113,3.95811856 44.7646724,4.00240599 L44.4479799,4.02426869 Z" id="Shape" transform="translate(38.500000, 11.500000) rotate(45.000000) translate(-38.500000, -11.500000) "></path>
                            <path d="M7,11.5 C7,9.55555556 5.44444444,8 3.5,8 C1.55555556,8 0,9.55555556 0,11.5 C0,13.4444444 1.55555556,15 3.5,15 C5.44444444,15 7,13.4444444 7,11.5 L7,11.5 Z M1.86666667,11.5 C1.86666667,10.5666667 2.64444444,9.86666667 3.5,9.86666667 C4.43333333,9.86666667 5.13333333,10.6444444 5.13333333,11.5 C5.13333333,12.4333333 4.35555556,13.1333333 3.5,13.1333333 C2.64444444,13.1333333 1.86666667,12.4333333 1.86666667,11.5 L1.86666667,11.5 Z" id="Shape"></path>
                            <path d="M27,12.0315789 L25.3636364,12.0315789 L25.3636364,11 L27,11 L27,12.0315789 L27,12.0315789 Z M23.7272727,12.0315789 L22.0909091,12.0315789 L22.0909091,11 L23.7272727,11 L23.7272727,12.0315789 L23.7272727,12.0315789 Z M20.4545455,12.0315789 L18.8181818,12.0315789 L18.8181818,11 L20.4545455,11 L20.4545455,12.0315789 L20.4545455,12.0315789 Z M17.1818182,12.0315789 L15.5454545,12.0315789 L15.5454545,11 L17.1818182,11 L17.1818182,12.0315789 L17.1818182,12.0315789 Z M13.9090909,12.0315789 L12.2727273,12.0315789 L12.2727273,11 L13.9090909,11 L13.9090909,12.0315789 L13.9090909,12.0315789 Z M10.6363636,12.0315789 L9,12.0315789 L9,11 L10.6363636,11 L10.6363636,12.0315789 L10.6363636,12.0315789 Z" id="Shape"></path>
                        </g>
                    </g>
                </g>
            </g>
        </g>
    </g>
</svg>