<?xml version="1.0" encoding="UTF-8"?>
<svg width="34px" height="34px" viewBox="0 0 34 34" version="1.1" xmlns="http://www.w3.org/2000/svg" xmlns:xlink="http://www.w3.org/1999/xlink">
    <!-- Generator: sketchtool 53.2 (72643) - https://sketchapp.com -->
    <title>FA5A1EEB-6F65-4FE3-A946-84C93E85B9E1</title>
    <desc>Created with sketchtool.</desc>
    <g id="Page-1" stroke="none" stroke-width="1" fill="none" fill-rule="evenodd">
        <g id="1.0-Homepage-V1" transform="translate(-1011.000000, -3123.000000)">
            <g id="Social-Buttons" transform="translate(1011.000000, 3123.000000)">
                <g id="ico-tw">
                    <circle id="Background" fill="#FFFFFF" cx="17" cy="17" r="17"></circle>
                    <path d="M24.1540733,12.6372741 C24.8572055,12.2457218 24.8894386,11.9705204 25.1435557,11.2306118 C24.4853999,11.593599 23.7560315,11.857653 22.9801873,11.9997823 C22.3602616,11.385282 21.4749746,11 20.4952371,11 C18.6137213,11 17.0890188,12.4185064 17.0890188,14.1658611 C17.0890188,14.4138907 17.1190031,14.6556499 17.1767229,14.8876551 C14.3462035,14.7559765 11.8357667,13.4956238 10.1558954,11.5796647 C9.86279869,12.0471587 9.69488652,12.5912911 9.69488652,13.1716525 C9.69488652,14.270368 10.2968217,15.2387982 11.2098441,15.8066188 C10.6513862,15.7898977 10.1266607,15.6477683 9.66790064,15.4108861 C9.66715103,15.4241237 9.66715103,15.4366645 9.66715103,15.4505987 C9.66715103,16.9847594 10.841037,18.2639234 12.4002214,18.5551491 C11.9009826,18.6812541 11.3747578,18.700762 10.8612764,18.6101894 C11.2952994,19.8670586 12.5531414,20.7825386 14.0433619,20.808317 C12.5853746,21.8701067 10.7780699,22.3125191 9,22.118833 C10.5082111,23.0168953 12.2975251,23.540823 14.2217686,23.540823 C20.4869914,23.540823 23.9126995,18.7167864 23.9126995,14.5330285 C23.9126995,14.3950795 23.9104507,14.2592206 23.9037042,14.1233616 C24.5686064,13.6774657 25.3676884,13.2615284 25.8241996,12.6261267 C25.2140188,12.8790333 24.6997878,12.8873939 24.1540733,12.6372741 Z" id="Twitter" fill="#006790"></path>
                </g>
            </g>
        </g>
    </g>
</svg>