<?xml version="1.0" encoding="UTF-8"?>
<svg width="50px" height="50px" viewBox="0 0 50 50" version="1.1" xmlns="http://www.w3.org/2000/svg" xmlns:xlink="http://www.w3.org/1999/xlink">
    <!-- Generator: sketchtool 53.2 (72643) - https://sketchapp.com -->
    <title>A8F4A0E2-3F96-49C7-B7A6-E4316C205305</title>
    <desc>Created with sketchtool.</desc>
    <g id="Page-1" stroke="none" stroke-width="1" fill="none" fill-rule="evenodd">
        <g id="1.0-Homepage-V1" transform="translate(-268.000000, -1935.000000)" fill="#FFFFFF" fill-rule="nonzero">
            <g id="Group-4" transform="translate(0.000000, 1700.000000)">
                <g id="Moon" transform="translate(204.000000, 235.000000)">
                    <g id="ico-search" transform="translate(64.000000, 0.000000)">
                        <path d="M49.0177884,46.3211947 C49.7624321,47.0658385 49.7624321,48.2731446 49.0177884,49.0177884 C48.2731446,49.7624321 47.0658385,49.7624321 46.3211947,49.0177884 L37.1686523,39.865246 C36.4240085,39.1206022 36.4240085,37.9132961 37.1686523,37.1686523 C37.9132961,36.4240085 39.1206022,36.4240085 39.865246,37.1686523 L49.0177884,46.3211947 Z M20.2118644,40.4237288 C9.04915993,40.4237288 3.55271368e-15,31.3745689 3.55271368e-15,20.2118644 C3.55271368e-15,9.04915993 9.04915993,0 20.2118644,0 C31.3745689,0 40.4237288,9.04915993 40.4237288,20.2118644 C40.4237288,31.3745689 31.3745689,40.4237288 20.2118644,40.4237288 Z M20.2118644,36.6101695 C29.2683982,36.6101695 36.6101695,29.2683982 36.6101695,20.2118644 C36.6101695,11.1553306 29.2683982,3.81355932 20.2118644,3.81355932 C11.1553306,3.81355932 3.81355932,11.1553306 3.81355932,20.2118644 C3.81355932,29.2683982 11.1553306,36.6101695 20.2118644,36.6101695 Z M10.8050847,18.6864407 C10.8050847,19.3884976 10.2359552,19.9576271 9.53389831,19.9576271 C8.83184142,19.9576271 8.26271186,19.3884976 8.26271186,18.6864407 C8.26271186,12.9295742 12.9295742,8.26271186 18.6864407,8.26271186 C19.3884976,8.26271186 19.9576271,8.83184142 19.9576271,9.53389831 C19.9576271,10.2359552 19.3884976,10.8050847 18.6864407,10.8050847 C14.333688,10.8050847 10.8050847,14.333688 10.8050847,18.6864407 Z" id="Combined-Shape"></path>
                    </g>
                </g>
            </g>
        </g>
    </g>
</svg>