<?xml version="1.0" encoding="UTF-8"?>
<svg width="62px" height="50px" viewBox="0 0 62 50" version="1.1" xmlns="http://www.w3.org/2000/svg" xmlns:xlink="http://www.w3.org/1999/xlink">
    <!-- Generator: sketchtool 53.2 (72643) - https://sketchapp.com -->
    <title>89A7A3C6-D60B-4C44-BF6E-D688C6BA65B0</title>
    <desc>Created with sketchtool.</desc>
    <g id="Page-1" stroke="none" stroke-width="1" fill="none" fill-rule="evenodd">
        <g id="1.0-Homepage-V1" transform="translate(-842.000000, -1935.000000)" fill="#FFFFFF" fill-rule="nonzero">
            <g id="Group-4" transform="translate(0.000000, 1700.000000)">
                <g id="Moon-Copy-2" transform="translate(803.000000, 235.000000)">
                    <g id="ico-credit-card-(1)" transform="translate(39.000000, 0.000000)">
                        <path d="M32.5855609,34.623747 L48.8782816,34.623747 C49.4892601,34.623747 49.8965394,34.2164678 49.8965394,33.6054893 L49.8965394,24.4408115 C49.8965394,23.8298329 49.4892601,23.4225537 48.8782816,23.4225537 L32.5855609,23.4225537 C31.9745823,23.4225537 31.5673031,23.8298329 31.5673031,24.4408115 L31.5673031,33.6054893 C31.5671838,34.2163484 31.9745823,34.623747 32.5855609,34.623747 Z M33.6038186,25.4590692 L47.8600239,25.4590692 L47.8600239,32.5871122 L33.6038186,32.5871122 L33.6038186,25.4590692 Z" id="Shape"></path>
                        <path d="M5.09152745,21.3857995 L13.2379475,21.3857995 C13.848926,21.3857995 14.2562053,20.9785203 14.2562053,20.3675418 C14.2562053,19.7565632 13.848926,19.349284 13.2379475,19.349284 L5.09152745,19.349284 C4.48054893,19.349284 4.07326969,19.7565632 4.07326969,20.3675418 C4.07326969,20.9785203 4.48054893,21.3857995 5.09152745,21.3857995 Z" id="Path"></path>
                        <path d="M17.3110979,21.3857995 L25.4575179,21.3857995 C26.0684964,21.3857995 26.4757757,20.9785203 26.4757757,20.3675418 C26.4757757,19.7565632 26.0684964,19.349284 25.4575179,19.349284 L17.3110979,19.349284 C16.7001193,19.349284 16.2928401,19.7565632 16.2928401,20.3675418 C16.2928401,20.9785203 16.7001193,21.3857995 17.3110979,21.3857995 Z" id="Path"></path>
                        <path d="M5.09152745,25.4590692 L18.3293556,25.4590692 C18.9403341,25.4590692 19.3476134,25.05179 19.3476134,24.4408115 C19.3476134,23.8298329 18.9403341,23.4225537 18.3293556,23.4225537 L5.09152745,23.4225537 C4.48054893,23.4225537 4.07326969,23.8298329 4.07326969,24.4408115 C4.07326969,25.05179 4.48054893,25.4590692 5.09152745,25.4590692 Z" id="Path"></path>
                        <path d="M25.4573986,23.4224344 L22.402506,23.4224344 C21.7915274,23.4224344 21.3842482,23.8297136 21.3842482,24.4406921 C21.3842482,25.0516706 21.7915274,25.4589499 22.402506,25.4589499 L25.4573986,25.4589499 C26.0683771,25.4589499 26.4756563,25.0516706 26.4756563,24.4406921 C26.4756563,23.8297136 26.0683771,23.4224344 25.4573986,23.4224344 Z" id="Path"></path>
                        <path d="M60.1813842,10.7955847 C59.4686158,9.87911695 58.552148,9.3699284 57.4319809,9.26813842 L54.9880668,8.97195704 L54.9880668,6.11133652 L54.9880668,4.074821 C54.9880668,1.83460621 53.1551313,0.00167064439 50.9149165,0.00167064439 L4.07315036,0.00167064439 C1.83293556,0.00155131265 0,1.83448687 0,4.074821 L0,6.11145585 L0,14.2578759 L0,36.6603819 C0,38.499642 1.23591885,40.0634845 2.91801909,40.5646778 C2.86670644,42.6245823 4.42529833,44.4128878 6.51718377,44.6031026 L53.5625298,49.89821 C53.6643198,49.89821 53.8680191,49.89821 53.9698091,49.89821 C56.0064439,49.89821 57.8393795,48.3707637 58.0429594,46.4360382 L61.097852,13.7486874 C61.199642,12.7303103 60.8941527,11.6101432 60.1813842,10.7955847 Z M2.03663484,7.1297136 L52.9515513,7.1297136 L52.9515513,9.77732697 L52.9515513,13.2394988 L2.03663484,13.2394988 L2.03663484,7.1297136 Z M4.07315036,2.03818616 L50.9147971,2.03818616 C52.0349642,2.03818616 52.951432,2.95465394 52.951432,4.074821 L52.951432,5.09307876 L2.03663484,5.09307876 L2.03663484,4.074821 C2.03663484,2.95465394 2.95310263,2.03818616 4.07315036,2.03818616 Z M2.03663484,36.6602625 L2.03663484,15.2760143 L52.9515513,15.2760143 L52.9515513,36.6602625 C52.9515513,37.7804296 52.0350835,38.6968974 50.9149165,38.6968974 L4.17505967,38.6968974 L4.07326969,38.6968974 C2.95310263,38.6968974 2.03663484,37.7804296 2.03663484,36.6602625 Z M59.0612172,13.3412888 L56.0063246,46.0286396 C55.9045346,47.1488067 54.8861575,47.9633652 53.7661098,47.8615752 L6.8225537,42.5664678 C5.80429594,42.4646778 5.09140811,41.65 4.98961814,40.7335322 L50.9147971,40.7335322 C53.1550119,40.7335322 54.9879475,38.9005967 54.9879475,36.6603819 L54.9879475,14.2577566 L54.9879475,10.8973747 L57.3300716,11.101074 C57.8392601,11.101074 58.3483294,11.4065632 58.6538186,11.8138425 C58.9594272,12.2211217 59.1631265,12.8321002 59.0612172,13.3412888 Z" id="Shape"></path>
                    </g>
                </g>
            </g>
        </g>
    </g>
</svg>