<?xml version="1.0" encoding="UTF-8"?>
<svg width="20px" height="15px" viewBox="0 0 20 15" version="1.1" xmlns="http://www.w3.org/2000/svg" xmlns:xlink="http://www.w3.org/1999/xlink">
    <!-- Generator: Sketch 53.2 (72643) - https://sketchapp.com -->
    <title>ico reverse</title>
    <desc>Created with Sketch.</desc>
    <g id="Page-1" stroke="none" stroke-width="1" fill="none" fill-rule="evenodd">
        <g id="1.0-Homepage-V1" transform="translate(-407.000000, -428.000000)" fill="#006790">
            <g id="Group-5" transform="translate(166.000000, 385.000000)">
                <g id="ico-reverse" transform="translate(241.000000, 43.000000)">
                    <path d="M15.116266,2.35294118 L1.10904079,2.35294118 C0.592950027,2.35294118 0.118831755,2.54471507 0.0206736422,2.82392004 C-0.111620986,3.19940257 0.409054659,3.52941176 1.0670683,3.52941176 L15.116266,3.52941176 C15.2144241,3.52941176 15.2941176,3.48550092 15.2941176,3.43136489 L15.2941176,2.45096507 C15.2941176,2.396875 15.2144241,2.35294118 15.116266,2.35294118 Z" id="Path"></path>
                    <path d="M19.8888979,3.30482908 L15.8105107,0.0696157918 C15.7173496,-0.00421022662 15.5868359,-0.0209606678 15.4757706,0.0272571659 C15.3650362,0.075785193 15.2941176,0.179596569 15.2941176,0.294299178 L15.2941176,6.7646913 C15.2941176,6.87939391 15.3650362,6.98320528 15.4757706,7.03145758 C15.5181232,7.05000025 15.5629758,7.05882353 15.6078652,7.05882353 C15.6806587,7.05882353 15.7527905,7.03500757 15.8105474,6.98940915 L19.8889347,3.75419586 C19.9595224,3.69801639 20,3.61595302 20,3.52951247 C20,3.44307192 19.9594856,3.36100855 19.8888979,3.30482908 Z" id="Path"></path>
                    <path d="M4.5241926,7.15144137 C4.41312729,7.10322142 4.2826136,7.11997259 4.18945256,7.19380186 L0.111065309,10.4291229 C0.0404776249,10.4849946 0,10.5670616 0,10.6535404 C0,10.7400192 0.0404776249,10.8220862 0.111065309,10.8782336 L4.18945256,14.1135891 C4.2471727,14.1591895 4.31934126,14.1830065 4.3921348,14.1830065 C4.43698739,14.1830065 4.48187675,14.1741829 4.52422936,14.1556394 C4.63496379,14.1074194 4.70588235,14.003569 4.70588235,13.8888614 L4.70588235,7.41821938 C4.70584559,7.30351173 4.63496379,7.19966132 4.5241926,7.15144137 Z" id="Path"></path>
                    <path d="M19.9793158,11.1245644 C19.8807826,10.8453649 19.4066647,10.6535948 18.8909494,10.6535948 L4.88373389,10.6535948 C4.78557585,10.6535948 4.70588235,10.6975048 4.70588235,10.7516397 L4.70588235,11.7320204 C4.70588235,11.7861324 4.78553417,11.8300654 4.88373389,11.8300654 L18.9329219,11.8300654 C19.5909351,11.8300424 20.111652,11.5000626 19.9793158,11.1245644 Z" id="Path"></path>
                </g>
            </g>
        </g>
    </g>
</svg>