<?xml version="1.0" encoding="UTF-8"?>
<svg width="53px" height="52px" viewBox="0 0 53 52" version="1.1" xmlns="http://www.w3.org/2000/svg" xmlns:xlink="http://www.w3.org/1999/xlink">
    <!-- Generator: sketchtool 53.2 (72643) - https://sketchapp.com -->
    <title>1A40E24D-9036-42CD-8798-8F2AC8891697</title>
    <desc>Created with sketchtool.</desc>
    <g id="Page-1" stroke="none" stroke-width="1" fill="none" fill-rule="evenodd">
        <g id="1.0-Homepage-V1" transform="translate(-565.000000, -1934.000000)" fill="#FFFFFF" fill-rule="nonzero" stroke="#FFFFFF" stroke-width="0.2">
            <g id="Group-4" transform="translate(0.000000, 1700.000000)">
                <g id="Moon-Copy" transform="translate(511.000000, 235.000000)">
                    <g id="ico-profit" transform="translate(55.000000, 0.000000)">
                        <path d="M12.9203418,27.5771775 L2.58406836,27.5771775 C1.15723197,27.5771775 0,28.7344095 0,30.1612459 L0,47.3883682 C0,48.8152046 1.15723197,49.9724366 2.58406836,49.9724366 L12.9203418,49.9724366 C14.3471782,49.9724366 15.5044101,48.8152046 15.5044101,47.3883682 L15.5044101,30.1612459 C15.5044101,28.7344095 14.3471782,27.5771775 12.9203418,27.5771775 Z M13.7816979,47.3883682 C13.7816979,47.8642675 13.396241,48.2497244 12.9203418,48.2497244 L2.58406836,48.2497244 C2.10816913,48.2497244 1.72271224,47.8642675 1.72271224,47.3883682 L1.72271224,30.1612459 C1.72271224,29.6853466 2.10816913,29.2998897 2.58406836,29.2998897 L12.9203418,29.2998897 C13.396241,29.2998897 13.7816979,29.6853466 13.7816979,30.1612459 L13.7816979,47.3883682 Z" id="Shape"></path>
                        <path d="M49.0972988,18.9636163 L38.7610254,18.9636163 C37.334189,18.9636163 36.176957,20.1208483 36.176957,21.5476847 L36.176957,47.3883682 C36.176957,48.8152046 37.334189,49.9724366 38.7610254,49.9724366 L49.0972988,49.9724366 C50.5241352,49.9724366 51.6813671,48.8152046 51.6813671,47.3883682 L51.6813671,21.5476847 C51.6813671,20.1208483 50.5241352,18.9636163 49.0972988,18.9636163 Z M49.9586549,47.3883682 C49.9586549,47.8642675 49.573198,48.2497244 49.0972988,48.2497244 L38.7610254,48.2497244 C38.2851261,48.2497244 37.8996692,47.8642675 37.8996692,47.3883682 L37.8996692,21.5476847 C37.8996692,21.0717854 38.2851261,20.6863286 38.7610254,20.6863286 L49.0972988,20.6863286 C49.573198,20.6863286 49.9586549,21.0717854 49.9586549,21.5476847 L49.9586549,47.3883682 Z" id="Shape"></path>
                        <path d="M31.0088203,23.2703969 L20.6725469,23.2703969 C19.2457105,23.2703969 18.0884785,24.4276289 18.0884785,25.8544653 L18.0884785,47.3883682 C18.0884785,48.8152046 19.2457105,49.9724366 20.6725469,49.9724366 L31.0088203,49.9724366 C32.4356567,49.9724366 33.5928886,48.8152046 33.5928886,47.3883682 L33.5928886,25.8544653 C33.5928886,24.4276289 32.4356567,23.2703969 31.0088203,23.2703969 Z M31.8701764,47.3883682 C31.8701764,47.8642675 31.4847195,48.2497244 31.0088203,48.2497244 L20.6725469,48.2497244 C20.1966476,48.2497244 19.8111907,47.8642675 19.8111907,47.3883682 L19.8111907,25.8544653 C19.8111907,25.378566 20.1966476,24.9931092 20.6725469,24.9931092 L31.0088203,24.9931092 C31.4847195,24.9931092 31.8701764,25.378566 31.8701764,25.8544653 L31.8701764,47.3883682 Z" id="Shape"></path>
                        <path d="M32.1225537,17.8498829 C32.4591287,18.1860271 33.0039364,18.1860271 33.3405113,17.8498829 L48.2359427,2.95445149 L48.2359427,4.32056229 C48.2359427,4.79646152 48.6213996,5.18191841 49.0972988,5.18191841 C49.573198,5.18191841 49.9586549,4.79646152 49.9586549,4.32056229 L49.9586549,0.875137817 C49.9565015,0.772205733 49.9366903,0.670350386 49.89836,0.574093826 C49.8865163,0.545238423 49.8729499,0.516598346 49.8585223,0.487958214 C49.8262214,0.424002536 49.785953,0.363707607 49.7381477,0.309226847 C49.6612717,0.214046968 49.5628617,0.13889366 49.4504548,0.0904423925 C49.4422719,0.0904423925 49.4366731,0.0805368247 49.4287056,0.0779527012 C49.333095,0.040053032 49.2318857,0.0198111907 49.1293843,0.0178731533 C49.1162486,0.0198111907 49.1078504,0.0137816979 49.0972988,0.0137816979 L45.6518743,0.0137816979 C45.1759751,0.0137816979 44.7905182,0.399238589 44.7905182,0.875137817 C44.7905182,1.35103705 45.1759751,1.73649394 45.6518743,1.73649394 L47.0179851,1.73649394 L32.7315325,16.0229465 L25.1576282,8.44904217 C24.8210533,8.11289796 24.2762455,8.11289796 23.9396706,8.44904217 L15.0737321,17.3149807 L10.9452522,13.1865008 C10.6086773,12.8503566 10.0638696,12.8503566 9.72729465,13.1865008 L1.97508958,20.9387059 C1.75113699,21.154691 1.66134063,21.4753308 1.74015469,21.7763748 C1.81918412,22.077634 2.05411902,22.3125689 2.35537828,22.3915983 C2.65642227,22.4704124 2.97706207,22.380616 3.19304713,22.1566635 L10.3362734,15.0134372 L14.4647533,19.141917 C14.8013282,19.4780612 15.3461359,19.4780612 15.6827109,19.141917 L24.5486494,10.2759785 L32.1225537,17.8498829 Z" id="Path"></path>
                    </g>
                </g>
            </g>
        </g>
    </g>
</svg>