<?xml version="1.0" encoding="UTF-8"?>
<svg width="15px" height="20px" viewBox="0 0 15 20" version="1.1" xmlns="http://www.w3.org/2000/svg" xmlns:xlink="http://www.w3.org/1999/xlink">
    <!-- Generator: Sketch 53.2 (72643) - https://sketchapp.com -->
    <title>hoadon</title>
    <desc>Created with Sketch.</desc>
    <g id="Page-1" stroke="none" stroke-width="1" fill="none" fill-rule="evenodd">
        <g id="6.4-Thanh-toán-tại-nhà" transform="translate(-168.000000, -525.000000)" fill="#686868" fill-rule="nonzero">
            <g id="hoadon" transform="translate(168.000000, 525.000000)">
                <path d="M14.9990184,3.92895643 C14.99769,3.81233396 14.9511957,3.69806214 14.8628566,3.6123014 L11.2775218,0.13311492 C11.2773655,0.132963265 11.2772483,0.132925352 11.277092,0.132811611 C11.1924255,0.0507284998 11.0754475,0 10.9463184,0 L0.986069626,0 C0.442320875,0 0,0.429182824 0,0.956827466 L0,18.4549372 C0,18.982544 0.442281804,19.4117647 0.986030555,19.4117647 L14.0139646,19.4117647 C14.5576743,19.4117647 14.9999952,18.9825819 14.9999952,18.4549372 L14.9999952,3.93365773 C15.0000733,3.93198953 14.9991747,3.93058672 14.9990184,3.92895643 Z M11.4146995,1.55184471 L13.4008261,3.47914857 L11.4640069,3.47914857 C11.4368526,3.47914857 11.4146995,3.45765151 11.4146995,3.43130151 L11.4146995,1.55184471 Z M14.063272,18.4549752 C14.063272,18.4813252 14.0411579,18.5027843 14.0140037,18.5027843 L0.986069626,18.5027843 C0.958915399,18.5027843 0.936801309,18.4813252 0.936801309,18.4549752 L0.936801309,0.956827466 C0.936801309,0.930477461 0.958915399,0.90901832 0.986069626,0.90901832 L10.4779372,0.90901832 L10.4779372,3.43130151 C10.4779372,3.95890824 10.9202972,4.3882048 11.4640459,4.3882048 L14.0633111,4.3882048 L14.0633111,18.4549752 L14.063272,18.4549752 Z" id="Shape"></path>
                <path d="M11.0227068,6.17647059 L3.09497762,6.17647059 C2.8476284,6.17647059 2.64705882,6.37398428 2.64705882,6.61764706 C2.64705882,6.86127304 2.8476284,7.05882353 3.09497762,7.05882353 L11.0226694,7.05882353 C11.2700187,7.05882353 11.4705882,6.86127304 11.4705882,6.61764706 C11.4706256,6.37398428 11.2700187,6.17647059 11.0227068,6.17647059 Z" id="Path"></path>
                <path d="M11.0227068,8.82352941 L3.09497762,8.82352941 C2.8476284,8.82352941 2.64705882,9.0210799 2.64705882,9.26470588 C2.64705882,9.50833186 2.8476284,9.70588235 3.09497762,9.70588235 L11.0226694,9.70588235 C11.2700187,9.70588235 11.4705882,9.50833186 11.4705882,9.26470588 C11.4706256,9.0210799 11.2700187,8.82352941 11.0227068,8.82352941 Z" id="Path"></path>
                <path d="M11.0227068,11.4705882 L3.09497762,11.4705882 C2.8476284,11.4705882 2.64705882,11.6681387 2.64705882,11.9117647 C2.64705882,12.1554275 2.8476284,12.3529412 3.09497762,12.3529412 L11.0226694,12.3529412 C11.2700187,12.3529412 11.4705882,12.1554275 11.4705882,11.9117647 C11.4706256,11.6681755 11.2700187,11.4705882 11.0227068,11.4705882 Z" id="Path"></path>
                <path d="M7.4532176,14.1176471 L3.13501769,14.1176471 C2.86555759,14.1176471 2.64705882,14.3151976 2.64705882,14.5588235 C2.64705882,14.8024863 2.86555759,15 3.13501769,15 L7.4532176,15 C7.7226777,15 7.94117647,14.8024863 7.94117647,14.5588235 C7.94117647,14.3151607 7.7226777,14.1176471 7.4532176,14.1176471 Z" id="Path"></path>
            </g>
        </g>
    </g>
</svg>