<?xml version="1.0" encoding="UTF-8"?>
<svg width="21px" height="19px" viewBox="0 0 21 19" version="1.1" xmlns="http://www.w3.org/2000/svg" xmlns:xlink="http://www.w3.org/1999/xlink">
    <!-- Generator: Sketch 53.2 (72643) - https://sketchapp.com -->
    <title>loading</title>
    <desc>Created with Sketch.</desc>
    <g id="Page-1" stroke="none" stroke-width="1" fill="none" fill-rule="evenodd">
        <g id="2.0-Xem-Vé" transform="translate(-650.000000, -944.000000)" fill-rule="nonzero">
            <g id="Group-24" transform="translate(446.000000, 933.000000)">
                <g id="btn">
                    <g id="Group-15" transform="translate(38.000000, 10.000000)">
                        <g id="loading" transform="translate(166.000000, 1.000000)">
                            <path d="M20,9 L16,9 C15.4477674,9 15,9.44776735 15,10 C15,10.5522326 15.4477674,11 16,11 L20,11 C20.5522326,11 21,10.5522326 21,10 C21,9.44776735 20.5523358,9 20,9 Z" id="Path" fill="#7FB3C7"></path>
                            <path d="M5,9 L1,9 C0.447767351,9 0,9.44776735 0,10 C0,10.5522326 0.447767351,11 1,11 L5,11 C5.55223265,11 6,10.5522326 6,10 C6,9.44776735 5.55223265,9 5,9 Z" id="Path" fill="#7FB3C7"></path>
                            <path d="M15.2323025,3.30330132 L12.3033062,6.23225069 C11.8988979,6.63654566 11.8988979,7.29221684 12.3033062,7.69661859 C12.5054569,7.89887286 12.7705061,8 13.0354485,8 C13.3004976,8 13.5655468,7.89897965 13.7676975,7.69661859 L16.6966938,4.76766922 C17.1011021,4.36337425 17.1011021,3.70770307 16.6966938,3.30330132 C16.2923924,2.89889956 15.6367107,2.89889956 15.2323025,3.30330132 Z" id="Path" fill="#408DAC"></path>
                            <g id="Group" transform="translate(2.000000, 12.000000)">
                                <path d="M8.83898876,2.89371642 C8.23730337,2.89371642 7.7494382,3.34735821 7.7494382,3.90683582 L7.7494382,5.93307463 C7.7494382,6.49255224 8.23730337,6.94619403 8.83898876,6.94619403 C9.44067416,6.94619403 9.92853933,6.49255224 9.92853933,5.93307463 L9.92853933,3.90683582 C9.92853933,3.34735821 9.44067416,2.89371642 8.83898876,2.89371642 Z" id="Path" fill="#E5EFF3"></path>
                                <path d="M3.44595506,0.396910448 L0.364269663,3.26252239 C-0.0612359551,3.6581791 -0.0612359551,4.29956716 0.364269663,4.69522388 C0.576966292,4.893 0.855842697,4.9919403 1.1347191,4.9919403 C1.41359551,4.9919403 1.69247191,4.893 1.90505618,4.69522388 L4.98674157,1.82961194 C5.41224719,1.43395522 5.41224719,0.792567164 4.98674157,0.396910448 C4.56134831,0.00125373134 3.87146067,0.00125373134 3.44595506,0.396910448 Z" id="Path" fill="#BFD9E3"></path>
                            </g>
                            <path d="M11,0 C10.4477674,0 10,0.447767351 10,1 L10,5 C10,5.55223265 10.4477674,6 11,6 C11.5522326,6 12,5.55223265 12,5 L12,1 C12,0.447767351 11.5522326,0 11,0 Z" id="Path" fill="#006790"></path>
                            <path d="M5.76773529,3.30330132 C5.36342521,2.89889956 4.70772952,2.89889956 4.30331265,3.30330132 C3.89889578,3.70770307 3.89889578,4.36326746 4.30331265,4.76766922 L7.23226471,7.69661859 C7.43441975,7.89887286 7.69947459,8 7.96452943,8 C8.22947747,8 8.4946391,7.89887286 8.69668735,7.69661859 C9.10110422,7.29232363 9.10110422,6.63665245 8.69668735,6.23225069 L5.76773529,3.30330132 Z" id="Path" fill="#408DAC"></path>
                        </g>
                    </g>
                </g>
            </g>
        </g>
    </g>
</svg>