<?xml version="1.0" encoding="UTF-8"?>
<svg width="16px" height="16px" viewBox="0 0 16 16" version="1.1" xmlns="http://www.w3.org/2000/svg" xmlns:xlink="http://www.w3.org/1999/xlink">
    <!-- Generator: sketchtool 53.2 (72643) - https://sketchapp.com -->
    <title>5E81A3B6-0412-4E24-BF6C-033B740D6557</title>
    <desc>Created with sketchtool.</desc>
    <g id="Page-1" stroke="none" stroke-width="1" fill="none" fill-rule="evenodd">
        <g id="2.0-Xem-vé" transform="translate(-1218.000000, -491.000000)" fill="#7FB3C7" fill-rule="nonzero">
            <g id="icon-/-18-00" transform="translate(1218.000000, 491.000000)">
                <path d="M15.8012093,10.458335 C15.6020255,10.259114 15.3016172,10.2035934 15.0436579,10.3211665 C13.8322288,10.8796385 12.486922,11.0788595 11.1579418,10.8959681 C7.32773597,10.3636234 4.64365308,6.8070384 5.17263292,2.96631851 C5.27059215,2.267412 5.46651061,1.588101 5.76365361,0.95451285 C5.88120468,0.699771225 5.82895976,0.396040825 5.62977599,0.19681981 C5.43059223,-0.00240120505 5.13018392,-0.0546558975 4.87222462,0.0596512422 C3.44528518,0.693239388 0.617528758,2.70831097 0.0885489199,6.52290351 C-0.753900452,12.6138411 4.62732655,15.8275047 7.21998082,15.9679392 C9.03875717,16.0691826 13.4208,16.2324786 15.9350869,11.2160281 C16.0591686,10.9645524 16.0003931,10.6575561 15.8012093,10.458335 Z M7.40283804,14.6354445 C3.57263218,14.1030998 0.888549293,10.5465148 1.41752913,6.70579494 C1.66569251,4.90953988 2.57671335,3.31577176 3.94487725,2.20862547 C3.90569356,2.39804873 3.87304048,2.58747199 3.84691802,2.78016117 C2.95875434,9.10297895 8.51630795,12.0161781 10.9750846,12.2251968 C11.9220238,12.3068448 12.8656977,12.3264403 13.7832492,12.137017 C12.2648811,14.0051223 9.87467593,14.9783659 7.40283804,14.6354445 Z" id="Shape"></path>
            </g>
        </g>
    </g>
</svg>