<?xml version="1.0" encoding="UTF-8"?>
<svg width="14px" height="16px" viewBox="0 0 14 16" version="1.1" xmlns="http://www.w3.org/2000/svg" xmlns:xlink="http://www.w3.org/1999/xlink">
    <!-- Generator: Sketch 54 (76480) - https://sketchapp.com -->
    <title>icon</title>
    <desc>Created with Sketch.</desc>
    <defs>
        <path d="M2.5,7 C2.22385763,7 2,7.22385763 2,7.5 L2,14.5 C2,14.7761424 2.22385763,15 2.5,15 L13.5,15 C13.7761424,15 14,14.7761424 14,14.5 L14,7.5 C14,7.22385763 13.7761424,7 13.5,7 L2.5,7 Z M2.5,6 L13.5,6 C14.3284271,6 15,6.67157288 15,7.5 L15,14.5 C15,15.3284271 14.3284271,16 13.5,16 L2.5,16 C1.67157288,16 1,15.3284271 1,14.5 L1,7.5 C1,6.67157288 1.67157288,6 2.5,6 Z M11,4 C11,2.34314575 9.65685425,1 8,1 C6.34314575,1 5,2.34314575 5,4 L5,6 L11,6 L11,4 Z M8,0 C10.209139,-3.80647894e-16 12,1.790861 12,4 L12,7 L4,7 L4,4 C4,1.790861 5.790861,3.80647894e-16 8,0 Z M8,13 C6.8954305,13 6,12.1045695 6,11 C6,9.8954305 6.8954305,9 8,9 C9.1045695,9 10,9.8954305 10,11 C10,12.1045695 9.1045695,13 8,13 Z M8,12 C8.55228475,12 9,11.5522847 9,11 C9,10.4477153 8.55228475,10 8,10 C7.44771525,10 7,10.4477153 7,11 C7,11.5522847 7.44771525,12 8,12 Z" id="path-1"></path>
    </defs>
    <g id="Page-1" stroke="none" stroke-width="1" fill="none" fill-rule="evenodd">
        <g id="9.0-Đăng-nhập" transform="translate(-466.000000, -712.000000)">
            <g id="Input-Field---Password" transform="translate(450.000000, 666.000000)">
                <g id="7.-Form-Bordered-/-1.-Input-/-2.-Top-Label-With-Icon-/-2.-Medium-/-1.-Radius-/-1.-Light">
                    <g id="2.-Icon-/-2.-Icon-Box-/-16-Size--/-ic_password" transform="translate(15.000000, 46.000000)">
                        <mask id="mask-2" fill="white">
                            <use xlink:href="#path-1"></use>
                        </mask>
                        <g id="ic_password" fill-rule="nonzero"></g>
                        <g id="3.-Color-/-2.-Gray-/-2.-Gray-20" mask="url(#mask-2)" fill="#333333" fill-rule="evenodd">
                            <rect id="Gray-20" x="0" y="0" width="16" height="16"></rect>
                        </g>
                    </g>
                </g>
            </g>
        </g>
    </g>
</svg>