<?xml version="1.0" encoding="UTF-8"?>
<svg width="17px" height="18px" viewBox="0 0 17 18" version="1.1" xmlns="http://www.w3.org/2000/svg" xmlns:xlink="http://www.w3.org/1999/xlink">
    <!-- Generator: sketchtool 53.2 (72643) - https://sketchapp.com -->
    <title>6951C870-D8F4-4EF3-95E4-D1DCFC72C63A</title>
    <desc>Created with sketchtool.</desc>
    <g id="Page-1" stroke="none" stroke-width="1" fill="none" fill-rule="evenodd">
        <g id="1.0-Homepage-V1" transform="translate(-1171.000000, -31.000000)" fill="#006790">
            <g id="Header">
                <g id="Navigation">
                    <g id="Group-7" transform="translate(1171.000000, 30.000000)">
                        <path d="M16.2065402,17.8351025 L14.6240872,18.9564313 C13.2815512,19.2855278 10.3505643,17.6600512 9.33091668,17.1078893 C8.31126911,16.5567277 5.65318784,14.2890628 4.55556722,13.0426973 C3.45894625,11.7973322 3.05908446,11.4142199 1.2507095,8.23828866 L0.144091987,5.84358652 C-0.0388447831,4.65023662 -0.0878278528,4.27512663 0.239059163,3.2658307 C0.239059163,3.2658307 0.867841833,2.62864387 1.20472539,2.28754386 C1.67256369,1.81140425 1.87149493,1.5953409 2.52326966,1.21222857 C3.58890133,0.603049955 5.29631119,1.41228723 6.03205689,2.28754386 L6.99772312,4.24411754 C7.22264538,5.17639089 6.87376596,6.91590093 6.08803754,6.88689242 C5.42226766,6.86888714 5.11437407,7.34202587 5.06239204,7.56909245 C5.14036509,7.83417017 5.64119199,8.61339865 5.65818611,8.60839718 C5.65818611,8.60839718 6.29396636,9.60268871 6.45890935,10.0058069 C6.45890935,10.0058069 9.2339502,13.2207496 9.60582167,13.508834 C10.287586,13.6848856 11.0663169,13.3197786 11.3042346,13.1647331 C11.3042346,13.1647331 11.6901013,12.8916531 12.0809662,12.6155721 C12.480828,12.3314888 12.8876873,12.0434043 12.8876873,12.0434043 C13.5664527,11.6872999 14.6020948,11.3221929 15.5747586,12.6735891 L16.6773775,14.8912394 C17.2191902,16.0315737 17.0892351,17.0228644 16.2065402,17.8351025 L16.2065402,17.8351025 Z" id="Phone-Icon"></path>
                    </g>
                </g>
            </g>
        </g>
    </g>
</svg>