<?xml version="1.0" encoding="UTF-8"?>
<svg width="80px" height="80px" viewBox="0 0 80 80" version="1.1" xmlns="http://www.w3.org/2000/svg" xmlns:xlink="http://www.w3.org/1999/xlink">
    <!-- Generator: sketchtool 53.2 (72643) - https://sketchapp.com -->
    <title>A8BA9404-83A7-4BEE-BFB0-B285FA5A175A</title>
    <desc>Created with sketchtool.</desc>
    <g id="Page-1" stroke="none" stroke-width="1" fill="none" fill-rule="evenodd">
        <g id="1.0-Homepage" transform="translate(-395.000000, -3706.000000)" fill="#FFFFFF" fill-rule="nonzero">
            <g id="icon-/-play" transform="translate(395.000000, 3706.000000)">
                <path d="M40,0 C17.9426562,0 0,17.944375 0,40 C0,62.055625 17.9426562,80 40,80 C62.0573438,80 80,62.055625 80,40 C80,17.944375 62.0573437,0 40,0 Z M40,76.6667187 C19.781875,76.6667187 3.33328125,60.218125 3.33328125,40 C3.33328125,19.781875 19.781875,3.33328125 40,3.33328125 C60.218125,3.33328125 76.6667187,19.781875 76.6667187,40 C76.6667187,60.218125 60.218125,76.6667187 40,76.6667187 Z" id="Shape"></path>
                <path d="M55.9017188,38.5985938 L32.5684375,23.5985938 C32.0573438,23.265 31.3965625,23.2470313 30.8692188,23.5367188 C30.3320312,23.8296875 30,24.3896875 30,25 L30,55 C30,55.6103125 30.3320312,56.1703125 30.8692187,56.4632812 C31.1165625,56.5984375 31.3932813,56.6667188 31.6667188,56.6667188 C31.9792188,56.6667188 32.295,56.57875 32.5684375,56.4014063 L55.9017187,41.4014063 C56.3770312,41.0954688 56.6667187,40.5664063 56.6667187,40 C56.6667187,39.4335938 56.3770312,38.9046875 55.9017188,38.5985938 Z" id="Shape"></path>
            </g>
        </g>
    </g>
</svg>