<?xml version="1.0" encoding="UTF-8"?>
<svg width="25px" height="27px" viewBox="0 0 25 27" version="1.1" xmlns="http://www.w3.org/2000/svg" xmlns:xlink="http://www.w3.org/1999/xlink">
    <!-- Generator: sketchtool 53.2 (72643) - https://sketchapp.com -->
    <title>D61A6E9C-13C2-4161-A223-34C6106A8550</title>
    <desc>Created with sketchtool.</desc>
    <g id="Page-1" stroke="none" stroke-width="1" fill="none" fill-rule="evenodd">
        <g id="1.0-Homepage" transform="translate(-529.000000, -648.000000)" fill="#006790" fill-rule="nonzero">
            <g id="Group-13" transform="translate(0.000000, 530.000000)">
                <g id="Group-6" transform="translate(529.000000, 118.000000)">
                    <g id="icon-/-reward">
                        <path d="M24.9114703,22.4660797 L21.3671511,15.770668 C22.5272886,14.1546478 23.2058348,12.2063599 23.2058348,10.1109924 C23.2058348,4.53577424 18.4032278,0 12.500028,0 C6.59682803,0 1.79422102,4.53577424 1.79422102,10.1109924 C1.79422102,12.2063599 2.47276731,14.1548538 3.63312287,15.77108 L0.088367485,22.4660797 C-0.0414091384,22.7114181 -0.0274499458,23.0024872 0.125010292,23.235672 C0.277688656,23.4688568 0.547275025,23.6109924 0.837582042,23.6109924 L4.90427931,23.6109924 L7.34429769,26.6835937 C7.50351939,26.8838196 7.75216706,27 8.0143376,27 C8.36178992,27 8.63552043,26.804306 8.76355216,26.5626755 L12.1242211,20.2149811 C12.2489811,20.2191009 12.3741773,20.2219849 12.500028,20.2219849 C12.6258785,20.2219849 12.7510748,20.2191009 12.8758348,20.2149811 L16.2365037,26.5626755 C16.3640992,26.803894 16.6380478,27 16.9857183,27 C17.2476707,27 17.4965364,26.8838196 17.6555401,26.6835937 L20.0957766,23.6109924 L24.1624738,23.6109924 C24.4527808,23.6109924 24.7223672,23.4688568 24.8748275,23.235672 C25.0275058,23.0024872 25.0414649,22.7114181 24.9114703,22.4660797 L24.9114703,22.4660797 Z M7.87147426,24.7103805 L5.99309416,22.3453674 C5.83496301,22.1461716 5.58675164,22.0289612 5.32305425,22.0289612 L2.19271156,22.0289612 L4.79173354,17.1201325 C6.26747902,18.5670319 8.19384375,19.601326 10.3555513,20.0180511 L7.87147426,24.7103805 Z M3.46932079,10.1109924 C3.46932079,5.40815737 7.52053215,1.58203125 12.500028,1.58203125 C17.4795237,1.58203125 21.530735,5.40815737 21.530735,10.1109924 C21.530735,14.8138275 17.4795237,18.6399536 12.500028,18.6399536 C7.52053215,18.6399536 3.46932079,14.8138275 3.46932079,10.1109924 Z M19.6767835,22.0289612 C19.4133043,22.0289612 19.1650929,22.1461716 19.0067436,22.3453674 L17.1285816,24.7103805 L14.6442865,20.0180511 C16.8062121,19.60112 18.732795,18.5670319 20.2085404,17.1197205 L22.8071262,22.0287552 L19.6767835,22.0287552 L19.6767835,22.0289612 Z" id="Shape"></path>
                        <path d="M16.580644,11.8310007 L18.8132505,9.26089203 C18.9902102,9.05729126 19.0460045,8.78020142 18.9608557,8.52760789 C18.8757069,8.27481365 18.6616897,8.08225627 18.3945847,8.01780278 L15.0221497,7.20420269 L13.1773972,4.36202392 C13.0312493,4.1367378 12.7751783,4 12.4997458,4 C12.2243132,4 11.9682422,4.1367378 11.8220943,4.36202392 L9.97775813,7.20420269 L6.60553136,8.01780278 C6.33821811,8.08225627 6.12420105,8.27481365 6.03905218,8.52740712 C5.95411154,8.78020142 6.00969771,9.05729126 6.18665735,9.26089203 L8.41926391,11.8310007 L8.17901511,15.1755555 C8.16007,15.440598 8.28373361,15.6964041 8.50649458,15.8526185 C8.84479983,16.0897512 9.18893438,15.9775097 9.27533235,15.9439778 L12.4997458,14.6906483 L15.7241592,15.9441786 C15.9796057,16.0433688 16.2700277,16.0088329 16.4927887,15.8528193 C16.7157579,15.6966049 16.8394215,15.4407988 16.8204764,15.1757563 L16.580644,11.8310007 Z M15.1481034,11.0788424 C15.0152795,11.2318441 14.9490758,11.4282165 14.9634408,11.6271992 L15.1372776,14.0533416 L12.7987035,13.1441657 C12.5395096,13.0433692 12.3121685,13.1007951 12.2009962,13.1441657 L9.86242204,14.0533416 L10.0366753,11.6274 C10.0508321,11.4284173 9.98462832,11.2318441 9.8518045,11.0788424 L8.23251937,9.2149112 L10.6785184,8.62479013 C10.8792116,8.57639981 11.0524238,8.45492203 11.1621388,8.28585704 L12.499954,6.22434874 L13.8379772,8.28585704 C13.9476922,8.45492203 14.1209045,8.57639981 14.3215976,8.62479013 L16.7675967,9.2149112 L15.1481034,11.0788424 Z" id="Shape"></path>
                    </g>
                </g>
            </g>
        </g>
    </g>
</svg>