<?xml version="1.0" encoding="UTF-8"?>
<svg width="20px" height="20px" viewBox="0 0 20 20" version="1.1" xmlns="http://www.w3.org/2000/svg" xmlns:xlink="http://www.w3.org/1999/xlink">
    <!-- Generator: Sketch 53.2 (72643) - https://sketchapp.com -->
    <title>settings (2)</title>
    <desc>Created with Sketch.</desc>
    <g id="Page-1" stroke="none" stroke-width="1" fill="none" fill-rule="evenodd">
        <g id="2.0-Xem-Vé" transform="translate(-1040.000000, -208.000000)" fill="#006790" fill-rule="nonzero">
            <g id="Filter" transform="translate(1020.000000, 190.000000)">
                <g id="settings-(2)" transform="translate(20.000000, 18.000000)">
                    <path d="M0.78125,4.140625 L9.8828125,4.140625 C10.3142969,4.140625 10.6640625,3.79085937 10.6640625,3.359375 C10.6640625,2.92789063 10.3142969,2.578125 9.8828125,2.578125 L0.78125,2.578125 C0.349765625,2.578125 0,2.92789062 0,3.359375 C0,3.79085938 0.349765625,4.140625 0.78125,4.140625 Z" id="Path"></path>
                    <path d="M14.5703125,6.6796875 C15.8626563,6.6796875 16.9140625,5.62828125 16.9140625,4.3359375 L16.9140625,4.140625 L19.21875,4.140625 C19.6502344,4.140625 20,3.79085938 20,3.359375 C20,2.92789063 19.6502344,2.578125 19.21875,2.578125 L16.9140625,2.578125 L16.9140625,2.34375 C16.9140625,1.05140625 15.8626563,0 14.5703125,0 C13.2779687,0 12.2265625,1.05140625 12.2265625,2.34375 L12.2265625,4.3359375 C12.2265625,5.62828125 13.2779687,6.6796875 14.5703125,6.6796875 Z M13.7890625,2.34375 C13.7890625,1.91296875 14.1395312,1.5625 14.5703125,1.5625 C15.0010938,1.5625 15.3515625,1.91296875 15.3515625,2.34375 L15.3515625,4.3359375 C15.3515625,4.76671875 15.0010938,5.1171875 14.5703125,5.1171875 C14.1395312,5.1171875 13.7890625,4.76671875 13.7890625,4.3359375 L13.7890625,2.34375 Z" id="Shape"></path>
                    <path d="M9.88101562,15.8984375 L0.78125,15.8984375 C0.349765625,15.8984375 0,16.2482031 0,16.6796875 C0,17.1111719 0.349765625,17.4609375 0.78125,17.4609375 L9.88101562,17.4609375 C10.3125,17.4609375 10.6622656,17.1111719 10.6622656,16.6796875 C10.6622656,16.2482031 10.3125,15.8984375 9.88101562,15.8984375 Z" id="Path"></path>
                    <path d="M0.78125,10.7764844 L3.0078125,10.7764844 C3.43929687,10.7764844 3.7890625,10.4267187 3.7890625,9.99523437 C3.7890625,9.56375 3.43929687,9.21398437 3.0078125,9.21398437 L0.78125,9.21398437 C0.349765625,9.21398437 0,9.56375 0,9.99523437 C0,10.4267187 0.349765625,10.7764844 0.78125,10.7764844 Z" id="Path"></path>
                    <path d="M19.21875,9.21398437 L10.0390625,9.21398437 L10.0390625,8.9453125 C10.0390625,7.65296875 8.98765625,6.6015625 7.6953125,6.6015625 C6.40296875,6.6015625 5.3515625,7.65296875 5.3515625,8.9453125 L5.3515625,10.9765625 C5.3515625,12.2689063 6.40296875,13.3203125 7.6953125,13.3203125 C8.98765625,13.3203125 10.0390625,12.2689063 10.0390625,10.9765625 L10.0390625,10.7764844 L19.21875,10.7764844 C19.6502344,10.7764844 20,10.4267187 20,9.99523437 C20,9.56378906 19.6502344,9.21398437 19.21875,9.21398437 Z M8.4765625,10.9765625 C8.4765625,11.4073438 8.12609375,11.7578125 7.6953125,11.7578125 C7.26453125,11.7578125 6.9140625,11.4073438 6.9140625,10.9765625 L6.9140625,8.9453125 C6.9140625,8.51453125 7.26453125,8.1640625 7.6953125,8.1640625 C8.12609375,8.1640625 8.4765625,8.51453125 8.4765625,8.9453125 L8.4765625,10.9765625 Z" id="Shape"></path>
                    <path d="M19.21875,15.8984375 L16.9122656,15.8984375 L16.9122656,15.6640625 C16.9122656,14.3717187 15.8608594,13.3203125 14.5685156,13.3203125 C13.2761719,13.3203125 12.2247656,14.3717187 12.2247656,15.6640625 L12.2247656,17.65625 C12.2247656,18.9485938 13.2761719,20 14.5685156,20 C15.8608594,20 16.9122656,18.9485938 16.9122656,17.65625 L16.9122656,17.4609375 L19.21875,17.4609375 C19.6502344,17.4609375 20,17.1111719 20,16.6796875 C20,16.2482031 19.6502344,15.8984375 19.21875,15.8984375 Z M15.3497656,17.65625 C15.3497656,18.0870313 14.9992969,18.4375 14.5685156,18.4375 C14.1377344,18.4375 13.7872656,18.0870313 13.7872656,17.65625 L13.7872656,15.6640625 C13.7872656,15.2332812 14.1377344,14.8828125 14.5685156,14.8828125 C14.9992969,14.8828125 15.3497656,15.2332812 15.3497656,15.6640625 L15.3497656,17.65625 Z" id="Shape"></path>
                </g>
            </g>
        </g>
    </g>
</svg>