<?xml version="1.0" encoding="UTF-8"?>
<svg width="16px" height="14px" viewBox="0 0 16 14" version="1.1" xmlns="http://www.w3.org/2000/svg" xmlns:xlink="http://www.w3.org/1999/xlink">
    <!-- Generator: Sketch 54.1 (76490) - https://sketchapp.com -->
    <title>2. Icons / 2. Icon Box / 16 Size  / ic_share</title>
    <desc>Created with Sketch.</desc>
    <defs>
        <path d="M5.2763932,3.9472136 L5.7236068,3.0527864 L10.7236068,5.5527864 L10.2763932,6.4472136 L5.2763932,3.9472136 Z M5.70690147,10.9551832 L5.29309853,10.0448168 L10.7930985,7.54481676 L11.2069015,8.45518324 L5.70690147,10.9551832 Z M13,10 C11.3431458,10 10,8.65685425 10,7 C10,5.34314575 11.3431458,4 13,4 C14.6568542,4 16,5.34314575 16,7 C16,8.65685425 14.6568542,10 13,10 Z M13,9 C14.1045695,9 15,8.1045695 15,7 C15,5.8954305 14.1045695,5 13,5 C11.8954305,5 11,5.8954305 11,7 C11,8.1045695 11.8954305,9 13,9 Z M3,6 C1.34314575,6 0,4.65685425 0,3 C0,1.34314575 1.34314575,8.8817842e-16 3,8.8817842e-16 C4.65685425,8.8817842e-16 6,1.34314575 6,3 C6,4.65685425 4.65685425,6 3,6 Z M3,5 C4.1045695,5 5,4.1045695 5,3 C5,1.8954305 4.1045695,1 3,1 C1.8954305,1 1,1.8954305 1,3 C1,4.1045695 1.8954305,5 3,5 Z M3,14 C1.34314575,14 0,12.6568542 0,11 C0,9.34314575 1.34314575,8 3,8 C4.65685425,8 6,9.34314575 6,11 C6,12.6568542 4.65685425,14 3,14 Z M3,13 C4.1045695,13 5,12.1045695 5,11 C5,9.8954305 4.1045695,9 3,9 C1.8954305,9 1,9.8954305 1,11 C1,12.1045695 1.8954305,13 3,13 Z" id="path-1"></path>
    </defs>
    <g id="Page-1" stroke="none" stroke-width="1" fill="none" fill-rule="evenodd">
        <g id="8.1-Tin-tức-Detail" transform="translate(-260.000000, -2702.000000)">
            <g id="Details" transform="translate(260.000000, 430.000000)">
                <g id="Share" transform="translate(0.000000, 2270.000000)">
                    <g id="2.-Icons-/-2.-Icon-Box-/-16-Size--/-ic_share" transform="translate(0.000000, 2.000000)">
                        <mask id="mask-2" fill="white">
                            <use xlink:href="#path-1"></use>
                        </mask>
                        <use id="ic_share" fill="#006790" fill-rule="nonzero" xlink:href="#path-1"></use>
                    </g>
                </g>
            </g>
        </g>
    </g>
</svg>