<?xml version="1.0" encoding="UTF-8"?>
<svg width="146px" height="141px" viewBox="0 0 146 141" version="1.1" xmlns="http://www.w3.org/2000/svg" xmlns:xlink="http://www.w3.org/1999/xlink">
    <!-- Generator: Sketch 53.2 (72643) - https://sketchapp.com -->
    <title>successful</title>
    <desc>Created with Sketch.</desc>
    <g id="Page-1" stroke="none" stroke-width="1" fill="none" fill-rule="evenodd">
        <g id="7.0-Xác-nhận-đặt-vé" transform="translate(-647.000000, -210.000000)" fill="#006790" fill-rule="nonzero">
            <g id="successful" transform="translate(647.000000, 210.000000)">
                <path d="M39.1769231,105.45 C38.3923077,104.66 38,103.475 38,102.685 C38,101.895 38.3923077,100.71 39.1769231,99.92 L44.6692308,94.39 C46.2384615,92.81 48.5923077,92.81 50.1615385,94.39 L50.5538462,94.785 L72.1307692,118.09 C72.9153846,118.88 74.0923077,118.88 74.8769231,118.09 L127.446154,63.185 L127.838462,63.185 L127.838462,63.185 C129.407692,61.605 131.761538,61.605 133.330769,63.185 L138.823077,68.715 C140.392308,70.295 140.392308,72.665 138.823077,74.245 L138.823077,74.245 L76.0538462,139.815 C75.2692308,140.605 74.4846154,141 73.3076923,141 C72.1307692,141 71.3461538,140.605 70.5615385,139.815 L39.9615385,106.635 L39.1769231,105.45 Z" id="Path"></path>
                <g id="king">
                    <path d="M144.2,118.843478 C141.769917,118.843478 139.8,116.881348 139.8,114.46087 C139.8,113.654104 139.1433,113 138.333333,113 C137.523367,113 136.866667,113.654104 136.866667,114.46087 C136.866667,116.881348 134.89675,118.843478 132.466667,118.843478 C131.6567,118.843478 131,119.497583 131,120.304348 C131,121.111113 131.6567,121.765217 132.466667,121.765217 C134.89675,121.765217 136.866667,123.727348 136.866667,126.147826 C136.866667,126.954591 137.523367,127.608696 138.333333,127.608696 C139.1433,127.608696 139.8,126.954591 139.8,126.147826 C139.8,123.727348 141.769917,121.765217 144.2,121.765217 C145.009967,121.765217 145.666667,121.111113 145.666667,120.304348 C145.666667,119.497583 145.009967,118.843478 144.2,118.843478 Z" id="Shape"></path>
                    <path d="M13.2,76.8434783 C10.7699167,76.8434783 8.8,74.8813478 8.8,72.4608696 C8.8,71.6541043 8.1433,71 7.33333333,71 C6.52336667,71 5.86666667,71.6541043 5.86666667,72.4608696 C5.86666667,74.8813478 3.89675,76.8434783 1.46666667,76.8434783 C0.6567,76.8434783 -2.99316127e-13,77.4975826 -2.99316127e-13,78.3043478 C-2.99316127e-13,79.111113 0.6567,79.7652174 1.46666667,79.7652174 C3.89675,79.7652174 5.86666667,81.7273478 5.86666667,84.1478261 C5.86666667,84.9545913 6.52336667,85.6086957 7.33333333,85.6086957 C8.1433,85.6086957 8.8,84.9545913 8.8,84.1478261 C8.8,81.7273478 10.7699167,79.7652174 13.2,79.7652174 C14.0099667,79.7652174 14.6666667,79.111113 14.6666667,78.3043478 C14.6666667,77.4975826 14.0099667,76.8434783 13.2,76.8434783 Z" id="Shape"></path>
                    <path d="M81.8666667,5.84347826 C79.4365833,5.84347826 77.4666667,3.88134783 77.4666667,1.46086957 C77.4666667,0.654104348 76.8099667,4.26325641e-14 76,4.26325641e-14 C75.1900333,4.26325641e-14 74.5333333,0.654104348 74.5333333,1.46086957 C74.5333333,3.88134783 72.5634167,5.84347826 70.1333333,5.84347826 C69.3233667,5.84347826 68.6666667,6.49758261 68.6666667,7.30434783 C68.6666667,8.11111304 69.3233667,8.76521739 70.1333333,8.76521739 C72.5634167,8.76521739 74.5333333,10.7273478 74.5333333,13.1478261 C74.5333333,13.9545913 75.1900333,14.6086957 76,14.6086957 C76.8099667,14.6086957 77.4666667,13.9545913 77.4666667,13.1478261 C77.4666667,10.7273478 79.4365833,8.76521739 81.8666667,8.76521739 C82.6766333,8.76521739 83.3333333,8.11111304 83.3333333,7.30434783 C83.3333333,6.49758261 82.6766333,5.84347826 81.8666667,5.84347826 Z" id="Shape"></path>
                    <path d="M107.2,49.8434783 C104.769917,49.8434783 102.8,47.8813478 102.8,45.4608696 C102.8,44.6541043 102.1433,44 101.333333,44 C100.523367,44 99.8666667,44.6541043 99.8666667,45.4608696 C99.8666667,47.8813478 97.89675,49.8434783 95.4666667,49.8434783 C94.6567,49.8434783 94,50.4975826 94,51.3043478 C94,52.111113 94.6567,52.7652174 95.4666667,52.7652174 C97.89675,52.7652174 99.8666667,54.7273478 99.8666667,57.1478261 C99.8666667,57.9545913 100.523367,58.6086957 101.333333,58.6086957 C102.1433,58.6086957 102.8,57.9545913 102.8,57.1478261 C102.8,54.7273478 104.769917,52.7652174 107.2,52.7652174 C108.009967,52.7652174 108.666667,52.111113 108.666667,51.3043478 C108.666667,50.4975826 108.009967,49.8434783 107.2,49.8434783 Z" id="Shape-Copy"></path>
                </g>
            </g>
        </g>
    </g>
</svg>