<svg xmlns="http://www.w3.org/2000/svg" width="18" height="18" viewBox="0 0 18 18">
    <g fill="#006790" fill-rule="nonzero">
        <path d="M9.36 2.16c.399 0 .72-.312.72-.692V.692A.705.705 0 0 0 9.36 0a.707.707 0 0 0-.72.692v.773c0 .386.321.695.72.695zM16.532 9.36h.776c.383 0 .692-.325.692-.72 0-.395-.309-.72-.692-.72h-.776c-.383 0-.692.325-.692.72 0 .395.312.72.692.72zM1.47 9.36c.382 0 .69-.325.69-.72 0-.395-.308-.72-.69-.72H.69c-.382 0-.69.325-.69.72 0 .395.308.72.69.72h.78zM15 4.093l.613-.613a.772.772 0 0 0 0-1.093.772.772 0 0 0-1.093 0L13.907 3a.772.772 0 0 0 0 1.093.772.772 0 0 0 1.093 0zM3 4.093a.773.773 0 0 0 1.093-1.09l-.613-.616a.773.773 0 0 0-1.093 1.09L3 4.094z"/>
        <path d="M1.898 12.475c1.807-1.295 3.643-.714 4.35-.405l.021.007c1.35.589 2.773.883 4.148.883 1.36 0 2.674-.29 3.819-.868.947-.478 2.15-.566 2.845-.404a.755.755 0 0 0 .337-1.471c-.534-.125-1.258-.155-2.023-.04.14-.53.212-1.078.212-1.626 0-3.523-2.864-6.391-6.386-6.391-3.522 0-6.386 2.868-6.386 6.391 0 .592.084 1.184.245 1.75a5.79 5.79 0 0 0-2.045.942.757.757 0 0 0-.176 1.051.731.731 0 0 0 1.04.18zm7.316-8.811c2.7 0 4.894 2.192 4.894 4.887 0 .761-.172 1.493-.512 2.173-.015.008-.026.011-.04.019-1.906.963-4.408.945-6.694-.052l-.018-.007a6.433 6.433 0 0 0-2.25-.526 4.791 4.791 0 0 1-.274-1.61c0-2.692 2.194-4.884 4.894-4.884zM17.416 15.232c-.962-.223-2.527-.145-3.855.534-1.905.972-4.407.954-6.693-.052l-.018-.007c-.94-.416-3.387-1.195-5.815.564a.768.768 0 0 0-.176 1.061.743.743 0 0 0 1.046.178c1.807-1.306 3.643-.72 4.349-.408l.022.007c1.35.594 2.772.891 4.147.891 1.36 0 2.674-.293 3.815-.876.947-.482 2.15-.571 2.845-.408a.755.755 0 0 0 .9-.572.772.772 0 0 0-.567-.912z"/>
    </g>
</svg>
