<svg xmlns="http://www.w3.org/2000/svg" width="18" height="18" viewBox="0 0 18 18">
    <g fill="#006790" fill-rule="nonzero">
        <path d="M9.36 2.16c.399 0 .72-.308.72-.69V.69A.704.704 0 0 0 9.36 0a.704.704 0 0 0-.72.69v.776c0 .383.321.694.72.694zM16.532 9.36h.776A.705.705 0 0 0 18 8.64a.705.705 0 0 0-.692-.72h-.776a.705.705 0 0 0-.692.72c0 .399.312.72.692.72zM.692 9.36h.776a.705.705 0 0 0 .692-.72.705.705 0 0 0-.692-.72H.692A.705.705 0 0 0 0 8.64c0 .399.309.72.692.72zM3 4.093a.772.772 0 0 0 1.093 0 .772.772 0 0 0 0-1.093l-.613-.613a.772.772 0 0 0-1.093 0 .772.772 0 0 0 0 1.093L3 4.093zM15 4.093l.613-.613a.772.772 0 0 0 0-1.093.772.772 0 0 0-1.093 0L13.907 3a.772.772 0 0 0 0 1.093.772.772 0 0 0 1.093 0z"/>
        <path d="M17.25 12.93h-3.122a6.209 6.209 0 0 0 1.286-3.766c0-3.466-2.876-6.284-6.414-6.284S2.586 5.698 2.586 9.164c0 1.37.463 2.688 1.286 3.766H.749a.74.74 0 0 0-.749.735.74.74 0 0 0 .75.735h16.5a.74.74 0 0 0 .75-.735.74.74 0 0 0-.75-.735zm-11.303 0a4.797 4.797 0 0 1-1.862-3.766C4.085 6.512 6.289 4.35 9 4.35s4.915 2.159 4.915 4.814c0 1.463-.69 2.854-1.862 3.766H5.947zM14.39 16.56H3.61a.723.723 0 0 0-.73.72c0 .399.325.72.73.72h10.78c.405 0 .73-.321.73-.72a.723.723 0 0 0-.73-.72z"/>
    </g>
</svg>
