<?xml version="1.0" encoding="UTF-8"?>
<svg width="18px" height="18px" viewBox="0 0 18 18" version="1.1" xmlns="http://www.w3.org/2000/svg" xmlns:xlink="http://www.w3.org/1999/xlink">
    <!-- Generator: sketchtool 53.2 (72643) - https://sketchapp.com -->
    <title>8146EFE5-8730-4FD1-BFDA-A624311E2498</title>
    <desc>Created with sketchtool.</desc>
    <g id="Page-1" stroke="none" stroke-width="1" fill="none" fill-rule="evenodd">
        <g id="2.0-Xem-vé" transform="translate(-1111.000000, -490.000000)" fill="#006790" fill-rule="nonzero">
            <g id="icon-/.--12" transform="translate(1111.000000, 490.000000)">
                <path d="M9.36,3.6 C6.18480946,3.6 3.6,6.18480946 3.6,9.36 C3.6,12.5351905 6.18480946,15.12 9.36,15.12 C12.5351905,15.12 15.12,12.5351905 15.12,9.36 C15.12,6.18102497 12.5351905,3.6 9.36,3.6 Z M9.36,13.5721419 C7.03632063,13.5721419 5.14407359,11.6798949 5.14407359,9.35621551 C5.14407359,7.03253614 7.03632063,5.14028909 9.36,5.14028909 C11.6836794,5.14028909 13.5759264,7.03253614 13.5759264,9.35621551 C13.5759264,11.6798949 11.6836794,13.5721419 9.36,13.5721419 Z" id="Shape"></path>
                <path d="M9.36,2.16 C9.75882353,2.16 10.08,1.85191223 10.08,1.46934169 L10.08,0.690658307 C10.08,0.308087774 9.75882353,0 9.36,0 C8.96117647,0 8.64,0.308087774 8.64,0.690658307 L8.64,1.46934169 C8.64,1.85191223 8.96117647,2.16 9.36,2.16 L9.36,2.16 Z" id="Path"></path>
                <path d="M9.36,15.84 C8.96117647,15.84 8.64,16.1485714 8.64,16.5317425 L8.64,17.3082575 C8.64,17.6914286 8.96117647,18 9.36,18 C9.75882353,18 10.08,17.6914286 10.08,17.3082575 L10.08,16.5317425 C10.08,16.1519623 9.75882353,15.84 9.36,15.84 L9.36,15.84 Z" id="Path"></path>
                <path d="M17.3093417,7.92 L16.5306583,7.92 C16.1480878,7.92 15.84,8.24117647 15.84,8.64 C15.84,9.03882353 16.1480878,9.36 16.5306583,9.36 L17.3093417,9.36 C17.6919122,9.36 18,9.03882353 18,8.64 C18,8.24117647 17.6919122,7.92 17.3093417,7.92 L17.3093417,7.92 Z" id="Path"></path>
                <path d="M1.47162969,7.92 L0.691733773,7.92 C0.308567517,7.92 0,8.24117647 0,8.64 C0,9.03882353 0.308567517,9.36 0.691733773,9.36 L1.46823884,9.36 C1.8514051,9.36 2.15997262,9.03882353 2.15997262,8.64 C2.16336347,8.24117647 1.8514051,7.92 1.47162969,7.92 L1.47162969,7.92 Z" id="Path"></path>
                <path d="M14.5235727,2.38697023 L13.9069702,2.99978984 C13.6043433,3.30241681 13.6043433,3.7904028 13.9069702,4.09302977 C14.2095972,4.39565674 14.6975832,4.39565674 15.0002102,4.09302977 L15.6130298,3.48021016 C15.9156567,3.17758319 15.9156567,2.6895972 15.6130298,2.38697023 C15.3104028,2.08434326 14.8224168,2.08434326 14.5235727,2.38697023 Z" id="Path"></path>
                <path d="M2.99978984,13.9057019 L2.38697023,14.5189236 C2.08434326,14.8217491 2.08434326,15.3100553 2.38697023,15.6128808 C2.6895972,15.9157064 3.17758319,15.9157064 3.48021016,15.6128808 L4.09302977,14.9996591 C4.39565674,14.6968336 4.39565674,14.2085274 4.09302977,13.9057019 C3.7904028,13.6028764 3.30241681,13.6066617 2.99978984,13.9057019 Z" id="Path"></path>
                <path d="M15.0002102,13.9069702 C14.6975832,13.6043433 14.2095972,13.6043433 13.9069702,13.9069702 C13.6043433,14.2095972 13.6043433,14.6975832 13.9069702,15.0002102 L14.5197898,15.6130298 C14.8224168,15.9156567 15.3104028,15.9156567 15.6130298,15.6130298 C15.9156567,15.3104028 15.9156567,14.8224168 15.6130298,14.5197898 L15.0002102,13.9069702 Z" id="Path"></path>
                <path d="M2.99978984,4.09302977 C3.30241681,4.39565674 3.7904028,4.39565674 4.09302977,4.09302977 C4.39565674,3.7904028 4.39565674,3.30241681 4.09302977,2.99978984 L3.48021016,2.38697023 C3.17758319,2.08434326 2.6895972,2.08434326 2.38697023,2.38697023 C2.08434326,2.6895972 2.08434326,3.17758319 2.38697023,3.48021016 L2.99978984,4.09302977 L2.99978984,4.09302977 Z" id="Path"></path>
            </g>
        </g>
    </g>
</svg>