<?xml version="1.0" encoding="UTF-8"?>
<svg width="37px" height="22px" viewBox="0 0 37 22" version="1.1" xmlns="http://www.w3.org/2000/svg" xmlns:xlink="http://www.w3.org/1999/xlink">
    <!-- Generator: sketchtool 53.2 (72643) - https://sketchapp.com -->
    <title>074BC423-17B3-43B8-97C2-A39236E4A9E7</title>
    <desc>Created with sketchtool.</desc>
    <g id="Page-1" stroke="none" stroke-width="1" fill="none" fill-rule="evenodd">
        <g id="1.0-Homepage" transform="translate(-909.000000, -651.000000)" fill="#006790" fill-rule="nonzero">
            <g id="Group-13" transform="translate(0.000000, 530.000000)">
                <g id="Group-15" transform="translate(909.000000, 121.000000)">
                    <g id="icon-/-ticket">
                        <path d="M32.5973445,0 L4.40231331,0 C1.97468401,0 0,1.80154045 0,4.0160918 L0,17.8037321 C0,20.0186279 1.97468401,21.8205128 4.40231331,21.8205128 L32.5973445,21.8205128 C35.0249738,21.8205128 37,20.0186279 37,17.8037321 L37,4.0160918 C36.9998289,1.80154045 35.0248026,0 32.5973445,0 Z M34.7368136,17.8037321 L34.7364714,17.8037321 C34.7364714,18.7623721 33.7768503,19.5425803 32.5970022,19.5425803 L4.40231331,19.5425803 C3.22280751,19.5425803 2.26318637,18.7623721 2.26318637,17.8037321 L2.26318637,4.0160918 C2.26318637,3.05779628 3.22280751,2.2779325 4.40231331,2.2779325 L32.5973445,2.2779325 C33.7771925,2.2779325 34.7368136,3.05779628 34.7368136,4.0160918 L34.7368136,17.8037321 Z" id="Shape"></path>
                        <rect id="Rectangle" x="10.4358974" y="12.3333333" width="1.8974359" height="1.8974359"></rect>
                        <rect id="Rectangle" x="10.4358974" y="16.1282051" width="1.8974359" height="1.8974359"></rect>
                        <rect id="Rectangle" x="10.4358974" y="3.79487179" width="1.8974359" height="1.8974359"></rect>
                        <rect id="Rectangle" x="10.4358974" y="7.58974359" width="1.8974359" height="1.8974359"></rect>
                        <path d="M27.4779127,6.99906636 L25.9025294,8.67827842 L20.9057414,7.18648281 L20.0622963,8.02723562 C19.9703319,8.11963324 19.9703319,8.26920598 20.0622963,8.3616036 L24.1138215,10.5858633 L22.0768097,12.6539973 L20.5014264,12.3328992 L19.9754227,12.8576325 C19.9056283,12.9272583 19.9056283,13.0396427 19.9754227,13.1092685 L22.9493221,16.0759857 C23.0191165,16.1456116 23.1324298,16.1456116 23.2015673,16.0759857 L23.7275709,15.5512524 L23.3981413,13.9506766 L25.4625782,11.9192396 L27.7081522,15.9891582 C27.8007735,16.0809005 27.9507083,16.0809005 28.0426728,15.9891582 L28.8861178,15.1477501 L27.3808574,10.1294453 L29.0514896,8.57015355 C29.5116401,8.11111431 29.531511,7.38749678 29.0974718,6.95401433 C28.6631041,6.51954893 27.9377348,6.54002712 27.4779127,6.99906636 Z" id="Path"></path>
                    </g>
                </g>
            </g>
        </g>
    </g>
</svg>