<?xml version="1.0" encoding="UTF-8"?>
<svg width="15px" height="15px" viewBox="0 0 15 15" version="1.1" xmlns="http://www.w3.org/2000/svg" xmlns:xlink="http://www.w3.org/1999/xlink">
    <!-- Generator: Sketch 53.2 (72643) - https://sketchapp.com -->
    <title>male-user-shadow copy 3</title>
    <desc>Created with Sketch.</desc>
    <g id="Page-1" stroke="none" stroke-width="1" fill="none" fill-rule="evenodd">
        <g id="5.0.1-Thông-tin-hành-khách-Khứ-hồi-filled" transform="translate(-165.000000, -1209.000000)" fill="#006790" fill-rule="nonzero">
            <g id="male-user-shadow-copy-3" transform="translate(165.000000, 1209.000000)">
                <path d="M0.601213957,15 L14.3987685,15 C14.5830451,15 14.7548796,14.92893 14.8701808,14.8051563 C14.9703824,14.6978097 15.0147151,14.5616016 14.9956895,14.4216861 C14.6721333,12.0412389 13.1221801,10.0576089 11.0003111,9 C10.1034498,9.84696555 8.86533551,10.3715492 7.50002141,10.3715492 C6.1347073,10.3715492 4.8965326,9.84696555 3.99973172,9 C1.87780227,10.0573238 0.327547148,12.0412389 0.00429295235,14.4216861 C-0.0147326589,14.5616016 0.0299020291,14.6980949 0.129801588,14.8051563 C0.245102832,14.92893 0.416937322,15 0.601213957,15 Z" id="Path"></path>
                <path d="M4.24277579,7.59618224 C4.32712508,7.68464459 4.41520776,7.76893061 4.50639106,7.85049568 C5.30280532,8.56294031 6.35011601,9 7.5,9 C8.64988399,9 9.69719468,8.56256064 10.4936089,7.85049568 C10.5847922,7.76893061 10.6729382,7.68458131 10.7572242,7.59618224 C10.8411938,7.50771989 10.9231386,7.41723265 11.0002109,7.32225269 C11.6241932,6.5495676 12,5.5683822 12,4.50006328 C12,2.01856148 9.98105885,0 7.49993672,0 C5.0188146,0 3,2.01887787 3,4.5 C3,5.56831892 3.37580679,6.5495676 3.99978907,7.32218941 C4.07654503,7.41723265 4.15842649,7.5074035 4.24277579,7.59618224 Z" id="Path"></path>
            </g>
        </g>
    </g>
</svg>