<?xml version="1.0" encoding="UTF-8"?>
<svg width="22px" height="22px" viewBox="0 0 22 22" version="1.1" xmlns="http://www.w3.org/2000/svg" xmlns:xlink="http://www.w3.org/1999/xlink">
    <!-- Generator: sketchtool 53.2 (72643) - https://sketchapp.com -->
    <title>B8C8051F-10F3-44DD-B07E-03AF5488CE69</title>
    <desc>Created with sketchtool.</desc>
    <g id="Page-1" stroke="none" stroke-width="1" fill="none" fill-rule="evenodd">
        <g id="1.0-Homepage" transform="translate(-605.000000, -2360.000000)" fill-rule="nonzero">
            <g id="Group-9" transform="translate(605.000000, 2360.000000)">
                <g id="icon-/-verify">
                    <path d="M20.5274251,5.5 L17.7407226,4.26035156 L16.5,1.47257486 L13.4673014,1.78929039 L11,0 L8.53126629,1.78929039 L5.5,1.47257486 L4.26017254,4.25909834 L1.47239583,5.5 L1.78929034,8.53269858 L0,11 L1.78929034,13.4687338 L1.47239583,16.5 L4.2590983,17.7396484 L5.5,20.5274251 L8.53269858,20.2107097 L11,22 L13.4687337,20.2107097 L16.5,20.5274251 L17.7396484,17.7407227 L20.5274251,16.5 L20.2105306,13.4673015 L22,11 L20.2105306,8.53126629 L20.5274251,5.5 Z M8.9478362,15.4 L5.86666667,12.3735641 L6.89372318,11.3684072 L8.9478362,13.382376 L15.1062768,7.33333333 L16.1333333,8.34197123 L8.9478362,15.4 Z" id="Shape" fill="#57A4FF"></path>
                    <g id="Group" fill="#1E81CE">
                        <path d="M21.8889902,10.7701993 L20.2400969,8.49553571 L20.5323189,5.70196177 C20.5482269,5.54928004 20.4641914,5.40386066 20.3239594,5.34143927 L17.7574195,4.19935239 L16.6153326,1.63263957 C16.5525654,1.49275338 16.4073189,1.40889085 16.2548101,1.42410714 L13.4607174,1.7161563 L11.1862267,0.0674358873 C11.0622485,-0.0224785996 10.8945234,-0.0224785996 10.7705451,0.0674358873 L8.49588156,1.7161563 L5.70196177,1.42410714 C5.54962589,1.40958249 5.40489812,1.49327213 5.34143927,1.63229376 L4.19935239,4.19900654 L1.63263957,5.34143927 C1.49258048,5.40368776 1.408545,5.54910714 1.42445299,5.70161597 L1.71650215,8.49553571 L0.0677816901,10.7701993 C-0.0221327968,10.8941776 -0.0221327968,11.0619027 0.0677816901,11.1858809 L1.71650215,13.4603716 L1.42445299,16.2544643 C1.4083721,16.4069731 1.49240758,16.5525654 1.63263957,16.6149868 L4.19935239,17.7570737 L5.34143927,20.3237864 C5.40455231,20.4631539 5.54945299,20.5470165 5.70196177,20.5323189 L8.49588156,20.2400969 L10.7705451,21.8889902 C10.8945234,21.9789047 11.0622485,21.9789047 11.1862267,21.8889902 L13.4607174,20.2400969 L16.2548101,20.5323189 C16.4073189,20.5477081 16.5523925,20.4638456 16.6153326,20.3241323 L17.7574195,17.7574195 L20.3239594,16.6149868 C20.4640185,16.5525654 20.548054,16.4073189 20.5323189,16.2548101 L20.2400969,13.4607174 L21.8889902,11.1862267 C21.9790776,11.0622485 21.9790776,10.8941776 21.8889902,10.7701993 L21.8889902,10.7701993 Z M19.5871793,13.1544894 C19.5358243,13.2252106 19.5124812,13.3123585 19.5216455,13.3991606 L19.8007262,16.0720416 L17.3448504,17.1653672 C17.264619,17.2006413 17.2002955,17.264619 17.1648485,17.3448504 L16.0723875,19.8007262 L13.3988148,19.5212997 C13.3120127,19.5123082 13.2250377,19.5358243 13.1544894,19.5871793 L10.978386,21.1644869 L8.80193662,19.5871793 C8.74159018,19.5430867 8.66896694,19.5193977 8.59444165,19.5195706 C8.58199195,19.5195706 8.56954225,19.5195706 8.5589946,19.5212997 L5.88524899,19.8007262 L4.792788,17.3448504 C4.75716801,17.264619 4.69319041,17.2004684 4.61295903,17.1648485 L2.15569984,16.0720416 L2.43478055,13.3991606 C2.443772,13.3123585 2.42042885,13.2252106 2.36924675,13.1544894 L0.791939135,10.9780401 L2.36924675,8.80159082 C2.42042885,8.73086958 2.443772,8.64372169 2.43478055,8.55691965 L2.15569984,5.88386569 L4.61157573,4.79071301 C4.69180711,4.75543891 4.75595761,4.69146127 4.7914047,4.61122988 L5.88386569,2.15535399 L8.5576113,2.43478055 C8.64424044,2.44342619 8.73121543,2.4199101 8.80193662,2.36890091 L10.978386,0.791593288 L13.1548353,2.36890091 C13.2253836,2.420083 13.3123585,2.44342619 13.3991606,2.43478055 L16.0727333,2.15535399 L17.1651943,4.61122988 C17.2008142,4.69146127 17.2649648,4.75543891 17.3451962,4.79105885 L19.8010721,5.88386569 L19.5219913,8.55691965 C19.512827,8.64372169 19.5361702,8.73086958 19.5875252,8.80159082 L21.1646598,10.9780401 L19.5871793,13.1544894 Z" id="Shape"></path>
                    </g>
                </g>
            </g>
        </g>
    </g>
</svg>